<svg width="14" height="14" viewBox="0 0 14 14" fill="none" xmlns="http://www.w3.org/2000/svg">
<path d="M7.00002 4.85938C5.81935 4.85938 4.86035 5.81838 4.86035 6.99904C4.86035 8.17971 5.81935 9.14104 7.00002 9.14104C8.18069 9.14104 9.14202 8.17971 9.14202 6.99904C9.14202 5.81838 8.18069 4.85938 7.00002 4.85938Z" fill="white"/>
<path d="M10.2292 1.16602H3.7705C2.3355 1.16602 1.1665 2.33502 1.1665 3.77002V10.2287C1.1665 11.666 2.3355 12.8327 3.7705 12.8327H10.2292C11.6665 12.8327 12.8332 11.666 12.8332 10.2287V3.77002C12.8332 2.33502 11.6665 1.16602 10.2292 1.16602ZM6.99984 10.7793C4.91617 10.7793 3.21984 9.08302 3.21984 6.99935C3.21984 4.91568 4.91617 3.22168 6.99984 3.22168C9.0835 3.22168 10.7798 4.91568 10.7798 6.99935C10.7798 9.08302 9.0835 10.7793 6.99984 10.7793ZM10.8592 3.90768C10.4182 3.90768 10.0588 3.55068 10.0588 3.10968C10.0588 2.66868 10.4182 2.30935 10.8592 2.30935C11.3002 2.30935 11.6595 2.66868 11.6595 3.10968C11.6595 3.55068 11.3002 3.90768 10.8592 3.90768Z" fill="white"/>
</svg>
