<svg width="12" height="12" viewBox="0 0 12 12" fill="none" xmlns="http://www.w3.org/2000/svg">
<path d="M6.99893 5.28711L10.9078 0.75H9.98151L6.58745 4.68951L3.87662 0.75H0.75L4.84931 6.70723L0.75 11.4651H1.67633L5.26055 7.30483L8.12338 11.4651H11.25L6.9987 5.28711H6.99893ZM5.73019 6.75972L5.31485 6.16651L2.0101 1.44631H3.43288L6.09986 5.25566L6.5152 5.84887L9.98195 10.8004H8.55917L5.73019 6.75994V6.75972Z" fill="white"/>
<path d="M6.99893 5.28711L10.9078 0.75H9.98151L6.58745 4.68951L3.87662 0.75H0.75L4.84931 6.70723L0.75 11.4651H1.67633L5.26055 7.30483L8.12338 11.4651H11.25L6.9987 5.28711H6.99893ZM5.73019 6.75972L5.31485 6.16651L2.0101 1.44631H3.43288L6.09986 5.25566L6.5152 5.84887L9.98195 10.8004H8.55917L5.73019 6.75994V6.75972Z" stroke="white"/>
</svg>
