<svg width="123" height="48" viewBox="0 0 123 48" fill="none" xmlns="http://www.w3.org/2000/svg">
<path fill-rule="evenodd" clip-rule="evenodd" d="M0 23.9983C0 19.2521 3.8475 15.4045 8.59371 15.4043V17.7915C5.16593 17.7917 2.38723 20.5705 2.38723 23.9983C2.38723 27.4262 5.1661 30.2051 8.59402 30.2051H23.8726V32.5923H8.59402C3.84767 32.5923 0 28.7447 0 23.9983ZM39.1509 32.5923C43.8971 32.5921 47.7445 28.7445 47.7445 23.9983C47.7445 19.252 43.8969 15.4043 39.1505 15.4043H23.872V17.7915H39.1505C42.5784 17.7915 45.3573 20.5704 45.3573 23.9983C45.3573 27.4261 42.5786 30.2049 39.1509 30.2051V32.5923Z" fill="#6936F4"/>
<path fill-rule="evenodd" clip-rule="evenodd" d="M32.4669 8.72097V8.72103H30.0796V8.72101C30.0796 5.29309 27.3007 2.51422 23.8728 2.51422C20.4449 2.51422 17.666 5.29309 17.666 8.72101L17.666 23.9992H15.2788L15.2788 14.7618L15.2788 8.72098C15.2788 3.97463 19.1265 0.126953 23.8728 0.126953C28.6192 0.126953 32.4669 3.97463 32.4669 8.72097ZM15.2788 39.2775C15.2788 44.0238 19.1265 47.8715 23.8728 47.8715C28.6192 47.8715 32.4668 44.0238 32.4668 39.2775V33.2367V23.9993H30.0796L30.0796 39.2775C30.0796 42.7054 27.3007 45.4843 23.8728 45.4843C20.4449 45.4843 17.666 42.7054 17.666 39.2775V39.2775L15.2788 39.2775Z" fill="white"/>
<path d="M64.2817 20.0096C63.0734 20.0096 62.0568 19.7424 61.232 19.208C60.4071 18.6619 59.8262 17.9242 59.4893 16.9948L61.5457 15.7923C62.022 17.0354 62.9572 17.657 64.3514 17.657C65.0252 17.657 65.519 17.535 65.8326 17.291C66.1463 17.0471 66.3032 16.7392 66.3032 16.3674C66.3032 15.9375 66.1115 15.6064 65.7281 15.3741C65.3447 15.1301 64.6592 14.8687 63.6717 14.5899C63.1257 14.4272 62.661 14.2646 62.2776 14.1019C61.9058 13.9393 61.5282 13.7243 61.1448 13.4571C60.7731 13.1783 60.4884 12.8298 60.2909 12.4115C60.0934 11.9933 59.9947 11.5053 59.9947 10.9477C59.9947 9.84399 60.3839 8.96684 61.1623 8.31624C61.9523 7.65403 62.8991 7.32292 64.0028 7.32292C64.9903 7.32292 65.8559 7.56689 66.5994 8.05484C67.3546 8.53117 67.9413 9.1992 68.3595 10.0589L66.338 11.2265C65.8501 10.1809 65.0717 9.6581 64.0028 9.6581C63.5033 9.6581 63.1083 9.77428 62.8178 10.0066C62.539 10.2274 62.3996 10.5178 62.3996 10.878C62.3996 11.2614 62.5564 11.575 62.8701 11.819C63.1954 12.0514 63.8111 12.307 64.7173 12.5858C65.0891 12.702 65.3679 12.7949 65.5538 12.8646C65.7513 12.9227 66.0127 13.0215 66.338 13.1609C66.6749 13.2887 66.9305 13.4107 67.1048 13.5268C67.2907 13.643 67.4998 13.7999 67.7322 13.9974C67.9645 14.1949 68.1388 14.3982 68.255 14.6073C68.3828 14.8164 68.4873 15.072 68.5686 15.3741C68.6616 15.6645 68.7081 15.984 68.7081 16.3326C68.7081 17.4595 68.2956 18.3541 67.4708 19.0163C66.6575 19.6785 65.5945 20.0096 64.2817 20.0096ZM76.8834 19.7656L74.4262 15.5309H72.5964V19.7656H70.1915V7.56689H75.071C76.1979 7.56689 77.1564 7.9619 77.9464 8.75191C78.7364 9.54192 79.1314 10.4946 79.1314 11.6099C79.1314 12.3651 78.9165 13.0679 78.4866 13.7185C78.0568 14.3575 77.4875 14.8397 76.7788 15.165L79.48 19.7656H76.8834ZM72.5964 9.81494V13.4223H75.071C75.5241 13.4223 75.9133 13.248 76.2386 12.8995C76.5639 12.5393 76.7265 12.1095 76.7265 11.6099C76.7265 11.1103 76.5639 10.6863 76.2386 10.3377C75.9133 9.98921 75.5241 9.81494 75.071 9.81494H72.5964ZM91.0242 18.1798C89.7928 19.3997 88.2941 20.0096 86.5281 20.0096C84.7622 20.0096 83.2635 19.3997 82.032 18.1798C80.8122 16.9483 80.2022 15.4438 80.2022 13.6663C80.2022 11.8887 80.8122 10.39 82.032 9.17015C83.2635 7.93866 84.7622 7.32292 86.5281 7.32292C88.2941 7.32292 89.7928 7.93866 91.0242 9.17015C92.2557 10.39 92.8715 11.8887 92.8715 13.6663C92.8715 15.4438 92.2557 16.9483 91.0242 18.1798ZM83.7224 16.5417C84.4776 17.2852 85.4128 17.657 86.5281 17.657C87.6435 17.657 88.5787 17.2852 89.3339 16.5417C90.089 15.7865 90.4666 14.828 90.4666 13.6663C90.4666 12.5045 90.089 11.546 89.3339 10.7908C88.5787 10.0357 87.6435 9.6581 86.5281 9.6581C85.4128 9.6581 84.4776 10.0357 83.7224 10.7908C82.9673 11.546 82.5897 12.5045 82.5897 13.6663C82.5897 14.828 82.9673 15.7865 83.7224 16.5417ZM101.933 7.56689V9.86722H98.6389V19.7656H96.234V9.86722H92.9578V7.56689H101.933ZM110.232 19.7656L109.5 17.5699H104.638L103.906 19.7656H101.31L105.579 7.56689H108.559L112.846 19.7656H110.232ZM105.405 15.3218H108.751L107.078 10.3377L105.405 15.3218ZM117.923 20.0096C116.715 20.0096 115.699 19.7424 114.874 19.208C114.049 18.6619 113.468 17.9242 113.131 16.9948L115.187 15.7923C115.664 17.0354 116.599 17.657 117.993 17.657C118.667 17.657 119.161 17.535 119.474 17.291C119.788 17.0471 119.945 16.7392 119.945 16.3674C119.945 15.9375 119.753 15.6064 119.37 15.3741C118.986 15.1301 118.301 14.8687 117.313 14.5899C116.767 14.4272 116.303 14.2646 115.919 14.1019C115.548 13.9393 115.17 13.7243 114.787 13.4571C114.415 13.1783 114.13 12.8298 113.933 12.4115C113.735 11.9933 113.636 11.5053 113.636 10.9477C113.636 9.84399 114.026 8.96684 114.804 8.31624C115.594 7.65403 116.541 7.32292 117.645 7.32292C118.632 7.32292 119.498 7.56689 120.241 8.05484C120.996 8.53117 121.583 9.1992 122.001 10.0589L119.98 11.2265C119.492 10.1809 118.713 9.6581 117.645 9.6581C117.145 9.6581 116.75 9.77428 116.46 10.0066C116.181 10.2274 116.041 10.5178 116.041 10.878C116.041 11.2614 116.198 11.575 116.512 11.819C116.837 12.0514 117.453 12.307 118.359 12.5858C118.731 12.702 119.01 12.7949 119.196 12.8646C119.393 12.9227 119.654 13.0215 119.98 13.1609C120.317 13.2887 120.572 13.4107 120.747 13.5268C120.932 13.643 121.142 13.7999 121.374 13.9974C121.606 14.1949 121.781 14.3982 121.897 14.6073C122.025 14.8164 122.129 15.072 122.21 15.3741C122.303 15.6645 122.35 15.984 122.35 16.3326C122.35 17.4595 121.937 18.3541 121.113 19.0163C120.299 19.6785 119.236 20.0096 117.923 20.0096Z" fill="white"/>
<path d="M67.0331 28.0337H69.4206V40.2324H67.0331V35.1787H62.5021V40.2324H60.0973V28.0337H62.5021V32.8783H67.0331V28.0337ZM74.0916 37.9321H79.2325V40.2324H71.6867V28.0337H79.1454V30.334H74.0916V32.9306H78.7097V35.1961H74.0916V37.9321ZM88.9569 40.2324L88.225 38.0366H83.3629L82.631 40.2324H80.0344L84.304 28.0337H87.284L91.5709 40.2324H88.9569ZM84.1297 35.7886H87.4757L85.8027 30.8045L84.1297 35.7886ZM95.1603 37.9321H99.8133V40.2324H92.7554V28.0337H95.1603V37.9321ZM108.006 28.0337V30.334H104.712V40.2324H102.307V30.334H99.031V28.0337H108.006ZM116.284 28.0337H118.672V40.2324H116.284V35.1787H111.753V40.2324H109.348V28.0337H111.753V32.8783H116.284V28.0337Z" fill="white"/>
</svg>
