
<svg width="51" height="51" viewBox="0 0 51 51" fill="none" xmlns="http://www.w3.org/2000/svg">
<path d="M31.875 4.25C33.0022 4.25 34.0832 4.69777 34.8802 5.4948C35.6772 6.29183 36.125 7.37283 36.125 8.5V19.125H40.375C41.5022 19.125 42.5832 19.5728 43.3802 20.3698C44.1772 21.1668 44.625 22.2478 44.625 23.375V44.4125C44.625 44.7195 44.5645 45.0234 44.4471 45.307C44.3296 45.5906 44.1574 45.8483 43.9404 46.0654C43.7233 46.2824 43.4656 46.4546 43.182 46.5721C42.8984 46.6895 42.5945 46.75 42.2875 46.75H8.7125C8.40553 46.75 8.10158 46.6895 7.81798 46.5721C7.53438 46.4546 7.2767 46.2824 7.05964 46.0654C6.84258 45.8483 6.6704 45.5906 6.55293 45.307C6.43546 45.0234 6.375 44.7195 6.375 44.4125V8.5C6.375 7.37283 6.82277 6.29183 7.6198 5.4948C8.41683 4.69777 9.49783 4.25 10.625 4.25H31.875ZM31.875 8.5H10.625V42.5H14.875V36.125C14.875 34.4342 15.5466 32.8127 16.7422 31.6172C17.9377 30.4216 19.5592 29.75 21.25 29.75C22.9408 29.75 24.5623 30.4216 25.7578 31.6172C26.9534 32.8127 27.625 34.4342 27.625 36.125V42.5H31.875V8.5ZM40.375 23.375H36.125V42.5H40.375V23.375ZM21.25 34C20.7295 34.0001 20.2272 34.1912 19.8382 34.537C19.4493 34.8829 19.2008 35.3595 19.1399 35.8764L19.125 36.125V42.5H23.375V36.125C23.375 35.5614 23.1511 35.0209 22.7526 34.6224C22.3541 34.2239 21.8136 34 21.25 34ZM21.25 12.75C21.8136 12.75 22.3541 12.9739 22.7526 13.3724C23.1511 13.7709 23.375 14.3114 23.375 14.875V17H25.5C26.0636 17 26.6041 17.2239 27.0026 17.6224C27.4011 18.0209 27.625 18.5614 27.625 19.125C27.625 19.6886 27.4011 20.2291 27.0026 20.6276C26.6041 21.0261 26.0636 21.25 25.5 21.25H23.375V23.375C23.375 23.9386 23.1511 24.4791 22.7526 24.8776C22.3541 25.2761 21.8136 25.5 21.25 25.5C20.6864 25.5 20.1459 25.2761 19.7474 24.8776C19.3489 24.4791 19.125 23.9386 19.125 23.375V21.25H17C16.4364 21.25 15.8959 21.0261 15.4974 20.6276C15.0989 20.2291 14.875 19.6886 14.875 19.125C14.875 18.5614 15.0989 18.0209 15.4974 17.6224C15.8959 17.2239 16.4364 17 17 17H19.125V14.875C19.125 14.3114 19.3489 13.7709 19.7474 13.3724C20.1459 12.9739 20.6864 12.75 21.25 12.75Z" fill="#5C3CE5"/>
</svg>
