<svg width="46" height="55" viewBox="0 0 46 55" fill="none" xmlns="http://www.w3.org/2000/svg">
<path d="M38.2006 29.2024C38.1329 22.3988 44.008 19.1299 44.2723 18.9742C40.9654 14.3498 35.8289 13.7142 33.9992 13.6428C29.6284 13.2148 25.4677 16.1075 23.245 16.1075C21.0224 16.1075 17.6002 13.7012 13.9749 13.7725C9.20423 13.8374 4.80632 16.4253 2.34647 20.5114C-2.60033 28.7225 1.08605 40.9159 5.91766 47.5899C8.28264 50.8523 11.0881 54.5298 14.788 54.3936C18.3524 54.2574 19.6942 52.1884 23.9904 52.1884C28.2867 52.1884 29.4997 54.3936 33.2606 54.3287C37.0893 54.2574 39.5153 50.995 41.8599 47.7196C44.5569 43.9254 45.6751 40.2609 45.7428 40.0663C45.6547 40.0339 38.282 37.3292 38.2006 29.2024Z" fill="white" fill-opacity="0.4"/>
<path d="M30.46 9.40624C32.3815 6.91259 33.6735 3.45274 33.3223 0C30.5594 0.120775 27.2135 1.97503 25.2324 4.46868C23.4567 6.67104 21.8997 10.1948 22.3237 13.5765C25.3914 13.8323 28.5452 11.8928 30.46 9.40624Z" fill="white" fill-opacity="0.4"/>
</svg>
