<?xml version="1.0" encoding="utf-8"?>
<!-- Generator: Adobe Illustrator 23.0.6, SVG Export Plug-In . SVG Version: 6.00 Build 0)  -->
<svg version="1.1" id="Layer_1" xmlns="http://www.w3.org/2000/svg" xmlns:xlink="http://www.w3.org/1999/xlink" x="0px" y="0px"
	 viewBox="0 0 566.9 120.1" style="enable-background:new 0 0 566.9 120.1;" xml:space="preserve">
<style type="text/css">
	.st0{fill:#FFFFFF;}
</style>
<title>Barts Life Sciences_Logo_rev</title>
<g>
	<g>
		<path class="st0" d="M0.3,8.6h12.6c5.7,0,9.9,0.8,12.5,2.4c2.6,1.6,3.9,4.2,3.9,7.8c0.1,2.1-0.5,4.2-1.7,5.9
			c-1.1,1.5-2.7,2.5-4.5,2.8v0.3c2.2,0.3,4.1,1.5,5.5,3.2c1.2,1.8,1.8,4,1.7,6.2c0.2,3.4-1.3,6.6-4,8.6C23.6,47.9,20,49,15.4,49H0.3
			V8.6z M8.9,24.6h5c2.3,0,4-0.4,5-1.1c1.1-0.8,1.7-2.2,1.6-3.6c0.1-1.3-0.5-2.6-1.7-3.3c-1.7-0.8-3.5-1.1-5.4-1H8.9V24.6z
			 M8.9,31.4v10.5h5.6c2.4,0,4.1-0.5,5.2-1.4c1.2-1,1.8-2.6,1.7-4.1c0-3.3-2.4-5-7.2-5L8.9,31.4z"/>
		<path class="st0" d="M62.6,49l-2.9-9.6H45L42,49h-9.2L47.1,8.4h10.5L71.8,49L62.6,49z M57.6,32.2c-2.7-8.7-4.2-13.6-4.6-14.8
			c-0.3-1.1-0.6-2-0.7-2.7c-0.6,2.4-2.3,8.2-5.2,17.5H57.6z"/>
		<path class="st0" d="M85.5,33.4v15.5h-8.6V8.6h11.8c5.5,0,9.6,1,12.2,3s3.9,5,3.9,9.1c0,2.3-0.7,4.5-2,6.3
			c-1.4,1.9-3.3,3.4-5.6,4.4c6.1,9.1,10,14.9,11.9,17.6h-9.5l-9.6-15.5H85.5z M85.5,26.4h2.8c2.7,0,4.7-0.4,6-1.4
			c1.3-1,2.1-2.6,1.9-4.3c0.1-1.6-0.6-3.2-2-4.1c-1.3-0.8-3.4-1.2-6.1-1.2h-2.6V26.4z"/>
		<path class="st0" d="M129.4,49h-8.6V15.7h-11V8.6h30.5v7.1h-11L129.4,49z"/>
		<path class="st0" d="M170.7,37.7c0.1,3.3-1.3,6.5-3.9,8.6c-2.6,2.1-6.3,3.1-11,3.1c-3.9,0.1-7.9-0.8-11.4-2.4v-8
			c2.2,1,4.6,1.9,6.9,2.6c1.7,0.5,3.4,0.7,5.2,0.7c1.5,0.1,3-0.3,4.3-1.1c1-0.7,1.6-2,1.5-3.2c0-0.8-0.2-1.5-0.7-2.1
			c-0.5-0.7-1.2-1.3-2-1.8c-1.7-1-3.4-1.9-5.2-2.7c-2-0.9-3.9-2-5.5-3.3c-1.2-1-2.2-2.3-3-3.7c-0.8-1.6-1.1-3.3-1.1-5
			c-0.2-3.2,1.2-6.3,3.6-8.4c2.4-2,5.8-3.1,10-3.1c2,0,4,0.2,6,0.7c2.1,0.5,4.1,1.2,6,2.1l-2.8,6.7c-1.7-0.7-3.5-1.4-5.3-1.9
			c-1.4-0.3-2.8-0.5-4.2-0.5c-1.3-0.1-2.7,0.3-3.7,1.1c-0.9,0.8-1.3,1.9-1.3,3c0,0.7,0.2,1.4,0.5,2c0.4,0.7,1,1.2,1.7,1.6
			c1.8,1.1,3.6,2,5.4,2.8c3.8,1.8,6.4,3.6,7.8,5.4C170,33,170.8,35.4,170.7,37.7z"/>
		<path class="st0" d="M191.6,49V8.6h8.6v33.3h16.4V49H191.6z"/>
		<path class="st0" d="M222.6,49V8.6h8.6V49H222.6z"/>
		<path class="st0" d="M248.9,49h-8.4V8.6h23.1v7h-14.7V26h13.7v7h-13.7V49z"/>
		<path class="st0" d="M293.4,49h-23.2V8.6h23.2v7h-14.7v8.9h13.7v7h-13.7v10.4h14.7V49z"/>
		<path class="st0" d="M339.2,37.7c0.1,3.3-1.3,6.5-3.9,8.6c-2.6,2.1-6.3,3.1-11,3.1c-3.9,0.1-7.9-0.8-11.4-2.4v-8
			c2.2,1,4.6,1.9,6.9,2.6c1.7,0.5,3.4,0.7,5.2,0.7c1.5,0.1,3-0.3,4.3-1.1c1-0.7,1.6-2,1.5-3.2c0-0.8-0.2-1.5-0.7-2.1
			c-0.5-0.7-1.2-1.3-2-1.8c-1.7-1-3.4-1.9-5.2-2.7c-2-0.9-3.9-2-5.5-3.3c-1.2-1-2.2-2.3-3-3.7c-0.8-1.6-1.2-3.3-1.1-5
			c-0.2-3.2,1.2-6.3,3.6-8.4c2.4-2,5.8-3.1,10-3.1c2,0,4,0.2,6,0.7c2.1,0.5,4.1,1.2,6,2.1l-2.7,6.7c-1.7-0.7-3.5-1.4-5.3-1.9
			c-1.4-0.3-2.8-0.5-4.2-0.5c-1.3-0.1-2.7,0.3-3.7,1.1c-0.9,0.7-1.4,1.9-1.3,3c0,0.7,0.2,1.4,0.5,2c0.4,0.7,1,1.2,1.7,1.6
			c1.8,1.1,3.6,2,5.4,2.8c3.8,1.8,6.4,3.6,7.8,5.4C338.5,33,339.2,35.4,339.2,37.7z"/>
		<path class="st0" d="M363.2,15.1c-2.9-0.1-5.8,1.2-7.5,3.6c-1.8,2.4-2.7,5.8-2.6,10.1c0,9,3.4,13.5,10.1,13.5
			c3.5-0.1,7-0.9,10.3-2.1v7.2c-3.5,1.4-7.3,2.1-11.1,2.1c-5.9,0-10.4-1.8-13.5-5.3c-3.1-3.6-4.7-8.7-4.7-15.4
			c-0.1-3.8,0.7-7.6,2.3-11c1.4-3,3.7-5.6,6.6-7.3c3.1-1.8,6.6-2.6,10.1-2.6c4.1,0,8.1,1,11.8,2.8l-2.8,7c-1.5-0.7-3-1.3-4.6-1.9
			C366.3,15.4,364.7,15.1,363.2,15.1z"/>
		<path class="st0" d="M381.1,49V8.6h8.6V49H381.1z"/>
		<path class="st0" d="M422.2,49h-23.3V8.6h23.3v7h-14.7v8.9h13.7v7h-13.7v10.4h14.7V49z"/>
		<path class="st0" d="M465.9,49H455l-17.6-30.5h-0.2c0.4,5.4,0.5,9.2,0.5,11.5v19h-7.7V8.6h10.8l17.5,30.2h0.2
			c-0.3-5.2-0.4-9-0.4-11.1V8.6h7.7L465.9,49z"/>
		<path class="st0" d="M492.4,15.1c-2.9-0.1-5.8,1.2-7.5,3.6c-1.8,2.4-2.6,5.8-2.7,10.1c0,9,3.4,13.5,10.1,13.5
			c3.5-0.1,7-0.9,10.3-2.1v7.2c-3.5,1.4-7.3,2.1-11.1,2.1c-5.9,0-10.4-1.8-13.5-5.3s-4.7-8.7-4.7-15.3c-0.1-3.8,0.7-7.6,2.3-11
			c1.4-3,3.7-5.6,6.6-7.3c3.1-1.7,6.5-2.6,10.1-2.5c4.1,0,8.1,1,11.8,2.8l-2.8,7c-1.5-0.7-3-1.3-4.5-1.9
			C495.4,15.4,493.9,15.1,492.4,15.1z"/>
		<path class="st0" d="M533.6,49h-23.2V8.6h23.2v7h-14.7v8.9h13.7v7h-13.7v10.4h14.7V49z"/>
		<path class="st0" d="M565.7,37.7c0.1,3.3-1.3,6.5-3.9,8.6c-2.6,2.1-6.3,3.1-11,3.1c-3.9,0.1-7.9-0.8-11.4-2.4v-8
			c2.2,1,4.6,1.9,6.9,2.6c1.7,0.5,3.4,0.7,5.2,0.7c1.5,0.1,3-0.3,4.3-1.1c1-0.7,1.6-2,1.5-3.2c0-0.8-0.2-1.5-0.7-2.1
			c-0.5-0.7-1.2-1.3-2-1.8c-1.7-1-3.4-1.9-5.2-2.7c-2-0.9-3.9-2-5.5-3.3c-1.2-1-2.2-2.3-3-3.7c-0.8-1.6-1.1-3.3-1.1-5
			c-0.2-3.2,1.2-6.3,3.6-8.4c2.4-2,5.8-3.1,10-3.1c2,0,4,0.2,6,0.7c2.1,0.5,4.1,1.2,6,2.1l-2.8,6.7c-1.7-0.7-3.5-1.4-5.3-1.9
			c-1.4-0.3-2.8-0.5-4.2-0.5c-1.3-0.1-2.7,0.3-3.7,1.1c-0.9,0.8-1.3,1.9-1.3,3c0,0.7,0.2,1.4,0.5,2c0.4,0.7,1,1.2,1.7,1.6
			c1.8,1.1,3.6,2,5.4,2.8c3.8,1.8,6.4,3.6,7.8,5.4C565,33,565.7,35.4,565.7,37.7z"/>
		<path class="st0" d="M20.2,88.4c0,4.5-1.2,7.8-3.5,10.1s-5.8,3.4-10.3,3.4H0V75.3h7.2c4.3,0,7.5,1.1,9.7,3.3
			C19.1,80.9,20.2,84.1,20.2,88.4z M18.2,88.4c0-3.8-1-6.7-2.9-8.6S10.5,77,6.8,77H1.9v23.3h4.4C14.2,100.3,18.2,96.3,18.2,88.4z"/>
		<path class="st0" d="M25.7,101.9V75.3h1.9v26.6H25.7z"/>
		<path class="st0" d="M48.8,95.1c0.1,2-0.8,4-2.4,5.3c-1.9,1.4-4.2,2.1-6.5,1.9c-2.5,0.1-5.1-0.2-7.5-1.1v-1.9
			c2.3,0.9,4.8,1.3,7.3,1.2c1.9,0.1,3.7-0.4,5.2-1.5c1.2-0.9,1.9-2.4,1.9-3.9c0-0.9-0.2-1.7-0.6-2.5c-0.5-0.8-1.2-1.4-2.1-1.8
			c-1.3-0.7-2.8-1.3-4.2-1.8c-2.1-0.6-4-1.6-5.6-3c-2.3-2.7-2-6.8,0.7-9.2c0,0,0,0,0.1-0.1c1.7-1.3,3.8-2,6-1.9c2.4,0,4.8,0.5,7,1.4
			L47.4,78c-2-0.9-4.2-1.4-6.3-1.4c-1.7-0.1-3.3,0.4-4.7,1.4c-1.1,0.9-1.8,2.3-1.7,3.7c-0.1,1.7,0.8,3.3,2.3,4.1
			c1.3,0.7,2.7,1.3,4.2,1.8c1.6,0.5,3.2,1.2,4.7,2.1c0.9,0.6,1.7,1.4,2.3,2.3C48.6,92.9,48.8,94,48.8,95.1z"/>
		<path class="st0" d="M65.3,76.6c-3-0.1-5.9,1-7.9,3.2c-1.9,2.1-2.9,5.1-2.9,8.8s0.9,6.7,2.7,8.9c1.8,2.1,4.4,3.1,7.8,3.1
			c2.1,0,4.2-0.3,6.1-0.9v1.6c-2.1,0.7-4.4,1-6.6,0.9c-3.3,0.2-6.6-1.2-8.8-3.6c-2.1-2.4-3.2-5.8-3.2-10.1c0-2.5,0.5-4.9,1.5-7.1
			c1-2,2.5-3.7,4.4-4.8c2-1.2,4.4-1.7,6.7-1.7c2.4,0,4.8,0.5,7,1.5l-0.8,1.7C69.6,77.1,67.5,76.6,65.3,76.6z"/>
		<path class="st0" d="M97.7,88.6c0,4.2-1.1,7.6-3.2,10c-4.7,4.8-12.4,4.9-17.2,0.2c-0.1-0.1-0.2-0.2-0.2-0.2
			c-2.1-2.5-3.2-5.8-3.2-10s1.1-7.6,3.2-10c4.7-4.8,12.5-4.9,17.3-0.2c0.1,0.1,0.1,0.1,0.2,0.2C96.7,81,97.7,84.4,97.7,88.6z
			 M76,88.6c0,3.8,0.8,6.8,2.5,8.8c3.9,4.1,10.3,4.2,14.4,0.3c0.1-0.1,0.2-0.2,0.3-0.3c1.7-2.1,2.5-5,2.5-8.9c0-3.8-0.8-6.8-2.5-8.8
			c-3.9-4-10.4-4.1-14.4-0.2c-0.1,0.1-0.1,0.1-0.2,0.2C76.8,81.9,76,84.8,76,88.6z"/>
		<path class="st0" d="M118.6,75.3h2l-10,26.6H109l-9.8-26.6h2l6.7,18.1c1,2.7,1.7,4.8,2.1,6.1c0.2-0.9,0.7-2.3,1.4-4.2L118.6,75.3z
			"/>
		<path class="st0" d="M139,101.9h-14.5V75.3H139V77h-12.7v10.1h12v1.7h-12v11.4H139V101.9z"/>
		<path class="st0" d="M145.8,90.3v11.6h-1.9V75.3h6.3c3.3,0,5.7,0.6,7.3,1.8c1.6,1.3,2.5,3.4,2.4,5.5c0.1,1.6-0.4,3.2-1.4,4.5
			c-1.1,1.3-2.6,2.3-4.3,2.6l7.2,12.1h-2.2l-6.8-11.6H145.8z M145.8,88.7h5.1c1.9,0.1,3.7-0.4,5.2-1.5c1.3-1.1,2-2.7,1.9-4.4
			c0.2-1.7-0.5-3.3-1.8-4.4c-1.2-0.9-3.2-1.4-5.9-1.4h-4.4V88.7z"/>
		<path class="st0" d="M171.7,89.9l7.8-14.5h2l-8.9,16.3v10.3h-1.9V91.8l-8.9-16.5h2.1L171.7,89.9z"/>
		<path class="st0" d="M202.7,75.3l-9.9,26.6h-1.9l9.9-26.6H202.7z"/>
		<path class="st0" d="M236,88.4c0,4.5-1.2,7.8-3.5,10.1s-5.8,3.4-10.3,3.4h-6.4V75.3h7.2c4.2,0,7.5,1.1,9.7,3.3
			C234.9,80.9,236,84.1,236,88.4z M234,88.4c0-3.8-1-6.7-2.9-8.6s-4.8-2.9-8.5-2.9h-4.9v23.3h4.4C230.1,100.3,234,96.3,234,88.4
			L234,88.4z"/>
		<path class="st0" d="M241.6,101.9V75.3h1.9v26.6H241.6z"/>
		<path class="st0" d="M266.7,75.3h2l-10,26.6h-1.6l-9.9-26.6h2l6.7,18.1c1,2.7,1.7,4.8,2.1,6.1c0.2-0.9,0.7-2.3,1.4-4.2L266.7,75.3
			z"/>
		<path class="st0" d="M287.1,101.9h-14.5V75.3h14.5V77h-12.7v10.1h12v1.7h-12v11.4h12.7V101.9z"/>
		<path class="st0" d="M293.8,90.3v11.6H292V75.3h6.3c3.3,0,5.7,0.6,7.3,1.8c1.6,1.3,2.5,3.4,2.4,5.5c0.1,1.6-0.4,3.2-1.4,4.5
			c-1.1,1.3-2.6,2.3-4.3,2.6l7.2,12.1h-2.2l-6.9-11.6L293.8,90.3z M293.8,88.7h5.1c1.9,0.1,3.7-0.4,5.2-1.5c1.3-1.1,2-2.7,1.9-4.4
			c0.1-1.7-0.5-3.3-1.8-4.4c-1.2-0.9-3.2-1.4-5.9-1.4h-4.4L293.8,88.7z"/>
		<path class="st0" d="M329.3,95.1c0.1,2-0.8,4-2.4,5.3c-1.9,1.4-4.2,2.1-6.5,1.9c-2.5,0.1-5.1-0.2-7.5-1.1v-1.9
			c2.3,0.9,4.8,1.3,7.3,1.2c1.8,0.1,3.7-0.4,5.2-1.5c1.2-0.9,2-2.4,1.9-3.9c0-0.9-0.2-1.7-0.6-2.5c-0.5-0.8-1.2-1.4-2.1-1.8
			c-1.3-0.7-2.8-1.3-4.2-1.8c-2.1-0.6-4-1.6-5.6-3c-1.1-1.2-1.6-2.7-1.5-4.3c0-1.9,0.8-3.7,2.3-4.9c1.7-1.3,3.8-2,6-1.9
			c2.4,0,4.8,0.5,7,1.4l-0.7,1.6c-2-0.9-4.1-1.3-6.3-1.4c-1.7-0.1-3.3,0.4-4.7,1.4c-1.2,0.9-1.8,2.3-1.8,3.7
			c-0.1,1.7,0.8,3.3,2.3,4.1c1.3,0.7,2.7,1.3,4.2,1.8c1.6,0.5,3.2,1.2,4.7,2.1c0.9,0.6,1.7,1.4,2.3,2.3
			C329,92.9,329.3,94,329.3,95.1z"/>
		<path class="st0" d="M334,101.9V75.3h1.9v26.6H334z"/>
		<path class="st0" d="M350.3,101.9h-1.9V77.1h-8.6v-1.8H359v1.8h-8.6V101.9z"/>
		<path class="st0" d="M370.8,89.9l7.8-14.5h2l-8.9,16.3v10.3h-1.9V91.8L361,75.3h2.1L370.8,89.9z"/>
		<path class="st0" d="M401.8,75.3l-9.9,26.6H390l9.9-26.6H401.8z"/>
		<path class="st0" d="M435.1,88.4c0,4.5-1.2,7.8-3.5,10.1c-2.3,2.3-5.8,3.4-10.3,3.4H415V75.3h7.2c4.2,0,7.5,1.1,9.7,3.3
			C434,80.9,435.1,84.1,435.1,88.4z M433.1,88.4c0-3.8-1-6.7-2.9-8.6s-4.8-2.9-8.5-2.9h-4.9v23.3h4.4
			C429.1,100.3,433.1,96.3,433.1,88.4L433.1,88.4z"/>
		<path class="st0" d="M455.2,101.9h-14.5V75.3h14.5V77h-12.7v10.1h12v1.7h-12v11.4h12.7V101.9z"/>
		<path class="st0" d="M460.2,101.9V75.3h1.9v24.9h12.7v1.7H460.2z"/>
		<path class="st0" d="M478.9,101.9V75.3h1.9v26.6H478.9z"/>
		<path class="st0" d="M504,75.3h2l-10,26.6h-1.6l-9.9-26.6h2l6.7,18.1c1,2.7,1.7,4.8,2.1,6.1c0.2-0.9,0.7-2.3,1.4-4.2L504,75.3z"/>
		<path class="st0" d="M524.4,101.9h-14.5V75.3h14.5V77h-12.7v10.1h12v1.7h-12v11.4h12.7V101.9z"/>
		<path class="st0" d="M531.2,90.3v11.6h-1.8V75.3h6.3c3.3,0,5.7,0.6,7.3,1.8c1.6,1.3,2.5,3.4,2.4,5.5c0.1,1.6-0.4,3.2-1.4,4.5
			c-1.1,1.3-2.6,2.3-4.3,2.6l7.2,12.1h-2.2l-6.9-11.6L531.2,90.3z M531.2,88.7h5.1c1.9,0.1,3.7-0.4,5.2-1.5c1.3-1.1,2-2.7,1.8-4.4
			c0.2-1.7-0.5-3.3-1.8-4.4c-1.2-0.9-3.2-1.4-5.9-1.4h-4.4V88.7z"/>
		<path class="st0" d="M557.1,89.9l7.8-14.5h2l-8.9,16.3v10.3h-1.9V91.8l-8.9-16.5h2.1L557.1,89.9z"/>
	</g>
	<g>
		<g>
			<path class="st0" d="M562,179.1c-0.1,0.9,0.5,1.7,1.4,1.7c0.1,0,0.2,0,0.3,0c0.3,0,0.7,0,1-0.1v-1.1c-0.2,0.1-0.4,0.2-0.6,0.1
				c-0.5,0-0.7-0.4-0.7-0.9v-2.5h1.2v-1h-1.2v-1.5l-1.4,0.5v1.1h-1v1h1V179.1z M560.2,175.4c-0.5-0.1-1-0.2-1.5-0.2
				c-1.1,0-2.1,0.5-2.1,1.7c0,1.9,2.4,1.2,2.4,2.3c0,0.5-0.6,0.6-0.9,0.6c-0.5,0-0.9-0.1-1.4-0.4l-0.1,1.1c0.5,0.1,1.1,0.2,1.6,0.2
				c1.1,0,2.3-0.5,2.3-1.8c0-1.9-2.4-1.4-2.4-2.2c0-0.5,0.5-0.6,0.8-0.6c0.5,0,0.9,0.1,1.3,0.2V175.4z M555.5,175.3h-1.4v2.6
				c0,0.7-0.2,1.8-1.2,1.8s-0.9-0.9-0.9-1.5v-2.9h-1.4v3.4c0,1.2,0.6,2.1,1.8,2.1c0.7,0,1.3-0.3,1.8-0.9l0,0v0.7h1.3L555.5,175.3z
				 M546.5,180.7h1.4v-2c0-0.8,0-2.2,1.1-2.2c0.2,0,0.4,0,0.6,0.1v-1.4c-0.1,0-0.3,0-0.4,0c-0.7,0.1-1.3,0.6-1.5,1.3l0,0v-1.2h-1.2
				L546.5,180.7z M543,180.7h1.5v-6.1h2.1v-1.1H541v1.1h2.1L543,180.7z M537,173.5c-0.6-0.2-1.1-0.3-1.7-0.3c-1.3,0-2.5,0.6-2.5,2.2
				c0,2.4,3.2,1.8,3.2,3.2c0,0.7-0.7,0.9-1.3,0.9c-0.6,0-1.1-0.2-1.7-0.5l-0.1,1.3c0.6,0.2,1.2,0.3,1.9,0.3c1.5,0,2.7-0.6,2.7-2.2
				c0-2.4-3.2-1.9-3.2-3.2c0-0.6,0.4-1,1-1c0.1,0,0.1,0,0.2,0c0.5,0,1,0.1,1.5,0.3L537,173.5z M525.5,180.7h1.5v-3.2h2.9v3.2h1.5
				v-7.2h-1.5v3h-2.9v-3h-1.5V180.7z M517.8,180.7h1.4v-5.5l0,0l2.8,5.5h1.8v-7.2h-1.4v5.5l0,0l-2.7-5.5h-1.8L517.8,180.7z"/>
			<path class="st0" d="M556.4,167.6h2.1v-3.9c0-1,0.3-2.7,1.8-2.7c1.3,0,1.4,1.3,1.4,2.3v4.3h2.1v-5.1c0-1.8-0.8-3.2-2.7-3.2
				c-1,0-2,0.5-2.5,1.3l0,0v-4.8h-2.1L556.4,167.6z M551,165.2c-0.1,1.3,0.8,2.5,2.1,2.6c0.1,0,0.3,0,0.4,0c0.5,0,1-0.1,1.5-0.2
				l-0.1-1.7c-0.3,0.2-0.7,0.2-1,0.2c-0.8,0-1-0.6-1-1.3v-3.8h1.9v-1.5h-1.9v-2.3l-2.1,0.7v1.6h-1.6v1.5h1.6L551,165.2z M546,167.6
				h2.1v-11.8H546V167.6z M538.8,165.3c0-1.2,1.4-1.4,2.3-1.4h0.9c0,0.6-0.1,1.2-0.4,1.7c-0.3,0.5-0.9,0.7-1.5,0.7
				C539.3,166.3,538.8,166,538.8,165.3 M537.7,161.8c0.7-0.5,1.6-0.9,2.5-0.9c1.2,0,1.8,0.4,1.8,1.7h-1.2c-0.9,0-1.9,0.1-2.7,0.5
				c-0.9,0.4-1.4,1.3-1.4,2.3c0.1,1.4,1.3,2.5,2.7,2.4c0,0,0.1,0,0.1,0c1,0,2-0.5,2.5-1.4l0,0c0,0.4,0,0.8,0.1,1.2h1.8
				c0-0.6-0.1-1.2-0.1-1.8s0-1.2,0-2v-1c0-2.4-1-3.4-3.5-3.4c-1,0-1.9,0.2-2.8,0.6L537.7,161.8z M535,165.4
				c-0.8,0.5-1.7,0.8-2.7,0.8c-1.2,0.1-2.2-0.8-2.3-1.9c0,0,0-0.1,0-0.1h5.6c0-2.8-0.8-4.9-3.8-4.9c-2.5,0-3.7,1.9-3.7,4.3
				c-0.2,2.1,1.3,4,3.4,4.2c0.3,0,0.5,0,0.8,0c1,0,1.9-0.2,2.8-0.6L535,165.4z M530,162.8c0-1,0.8-1.9,1.8-1.9c0,0,0.1,0,0.1,0
				c1.2,0,1.6,0.9,1.7,1.9H530z M517.4,167.6h2.2v-4.8h4.4v4.8h2.2v-10.9H524v4.4h-4.4v-4.4h-2.2L517.4,167.6z M510.9,159.6
				c-0.7-0.2-1.5-0.3-2.3-0.3c-1.7,0-3.2,0.8-3.2,2.5c0,2.9,3.7,1.8,3.7,3.4c0,0.8-0.8,1-1.4,1c-0.7,0-1.4-0.2-2.1-0.5l-0.1,1.7
				c0.8,0.2,1.6,0.3,2.4,0.3c1.7,0,3.4-0.8,3.4-2.6c0-2.9-3.7-2.1-3.7-3.4c0-0.7,0.7-0.9,1.2-0.9c0.6,0,1.3,0.1,1.9,0.4L510.9,159.6
				z M500.5,165.1c-0.1,1.3,0.8,2.5,2.1,2.6c0.2,0,0.3,0,0.5,0c0.5,0,1-0.1,1.5-0.2l-0.1-1.7c-0.3,0.2-0.7,0.2-1,0.2
				c-0.8,0-1-0.6-1-1.3V161h1.9v-1.5h-1.9v-2.3l-2.1,0.7v1.6h-1.5v1.5h1.5L500.5,165.1z M493.2,167.6h2.1v-3c0-1.2,0-3.3,1.7-3.3
				c0.3,0,0.7,0,1,0.2v-2.1c-0.2-0.1-0.4-0.1-0.7-0.1c-1.1,0.1-2,0.9-2.2,2l0,0v-1.8h-1.9V167.6z M486.5,165.3
				c0-1.2,1.4-1.4,2.3-1.4h0.9c0,0.6-0.1,1.2-0.4,1.7c-0.3,0.5-0.9,0.7-1.5,0.7C487.1,166.3,486.5,166,486.5,165.3 M485.5,161.8
				c0.7-0.6,1.6-0.9,2.5-0.9c1.2,0,1.8,0.4,1.8,1.7h-1.2c-0.9,0-1.9,0.1-2.7,0.5c-0.9,0.4-1.4,1.3-1.4,2.3c0.1,1.4,1.3,2.5,2.7,2.4
				c0,0,0.1,0,0.1,0c1,0,2-0.5,2.5-1.4l0,0c0,0.2,0,0.8,0.1,1.2h1.8c0-0.6-0.1-1.2-0.1-1.8s0-1.2,0-2v-1c0-2.4-1-3.4-3.5-3.4
				c-1,0-1.9,0.2-2.8,0.6L485.5,161.8z M475.7,167.6h3.8c1.4,0,3.9-0.4,3.9-3.2c0-1.4-1.1-2.5-2.5-2.5l0,0c1.2-0.1,2.2-1.2,2.2-2.5
				c0-2.4-2.1-2.8-3.5-2.8h-3.8L475.7,167.6z M477.9,158.4h0.8c1,0,2.1,0.1,2.1,1.4s-1.1,1.3-2.1,1.3h-0.9L477.9,158.4z
				 M477.9,162.7h1c1.1,0,2.2,0.2,2.2,1.6c0,1.3-1.2,1.5-2.2,1.5h-1V162.7z"/>
			<path class="st0" d="M562.9,130.7l-1.2,3.6c-1.3-0.6-2.6-0.9-4-0.8c-1.9,0-3.5,0.3-3.5,1.7c0,2.5,7,1.6,7,7c0,5-4.6,6.2-8.8,6.2
				c-1.9,0-3.8-0.4-5.6-0.9l1.1-3.6c1.4,0.7,2.9,1,4.4,1c1.5,0,3.8-0.3,3.8-2.1c0-2.9-7-1.8-7-6.8c0-4.6,4.1-6,8-6
				C559.2,129.8,561.1,130.1,562.9,130.7 M549,130.2l-3.7,17.9h-4.8l1.6-7.7h-5.7l-1.6,7.7H530l3.7-17.9h4.8l-1.4,6.8h5.7l1.4-6.8
				H549z M531.9,130.2l-3.7,17.9h-6l-3.8-12.4h0l-2.5,12.4h-4.5l3.8-17.9h6l3.7,12.4h0l2.5-12.4L531.9,130.2z M564.9,128.1h-55.1
				v22.2h55.2L564.9,128.1z"/>
		</g>
		<g>
			<path class="st0" d="M277.6,138.5c-5.6-0.1-10.2,4.4-10.3,10c-0.1,5.6,4.4,10.2,10,10.3c5.6,0.1,10.2-4.4,10.3-10
				c0-0.1,0-0.1,0-0.2C287.6,143.1,283.1,138.6,277.6,138.5 M277.6,158c-4.1,0-7.4-4.2-7.4-9.4s3.3-9.4,7.4-9.4
				c4.1,0,7.4,4.2,7.4,9.4S281.8,158,277.6,158"/>
			<path class="st0" d="M256.7,139.2c0,0,7.2,5.3,4,11.6c0,0,4.9-6.8,6.5,2.8c-0.9-1.3-2.5-2-4.1-1.6c-1.3,0.2-2.3,1.1-2.7,2.4
				L256.7,139.2z"/>
			<path class="st0" d="M298.2,139.2c0,0-7.2,5.3-4,11.6c0,0-4.9-6.8-6.5,2.8c0.9-1.3,2.5-2,4.1-1.6c1.3,0.2,2.3,1.1,2.6,2.4
				L298.2,139.2z"/>
			<path class="st0" d="M268.2,159.4c1.1-0.4,2.1-0.7,3.4-1.2c-0.6-0.4-1.1-0.8-1.7-1.3c-1.3,0.5-2.5,0.9-3.2,1.2
				c-0.7,0.3-3.2,0.8-4.1-1.6c-0.6-1-0.2-2.2,0.7-2.7c0.3-0.2,0.7-0.3,1.1-0.3c0.3,0,0.6,0.1,0.9,0.2c-0.6,0-1.2,0.5-1.2,1.1
				c0,0.6,0.5,1.2,1.1,1.2s1.2-0.5,1.2-1.1c0,0,0,0,0,0c0-0.5-0.2-0.9-0.6-1.2c-0.5-0.4-1.2-0.6-1.8-0.6c-1.6,0.1-2.8,1.3-3,2.9
				C260.7,157.7,262.6,161.3,268.2,159.4"/>
			<path class="st0" d="M262.5,162.3c-0.2-0.8,0.6-1.5,1.9-1.5H291c1.3,0,2.1,0.6,1.9,1.5c-0.2,0.8-1.4,1.4-2.7,1.3l-10.3-0.8
				c-1.5-0.1-3.1-0.1-4.6,0l-10.2,0.8C263.9,163.7,262.7,163.1,262.5,162.3"/>
			<path class="st0" d="M279.2,137.5c-1.1-1.6-0.4-2.6,0.3-2.6c1.2,0,1.6,0.7,1.6,1.7c0.7-0.5,1.1-1.4,1.1-2.2
				c0-0.9-0.7-1.7-1.6-1.8c-0.8-0.1-1.6,0.3-2.1,0.9c0.1-0.2,0.2-0.4,0.3-0.5c0.2-0.4,0.4-0.8,0.4-1.2c-0.1-0.6-0.2-1.1-0.5-1.6
				c-0.3-0.6-0.7-1.4-1-2.1c-0.3,0.7-0.7,1.6-1,2.1c-0.3,0.5-0.5,1-0.5,1.6c0.1,0.4,0.2,0.9,0.4,1.2l0.3,0.5c-0.5-0.7-1.3-1-2.2-0.9
				c-0.9,0.1-1.6,0.8-1.6,1.8c0,0.9,0.5,1.7,1.2,2.2c0-1.1,0.4-1.7,1.6-1.7c0.7,0,1.4,0.9,0.2,2.6
				C277.1,137.2,278.1,137.2,279.2,137.5"/>
			<path class="st0" d="M293.8,156.1c-0.2-1.6-1.4-2.8-3-2.9c-0.7,0-1.3,0.2-1.8,0.6c-0.4,0.3-0.6,0.7-0.6,1.2
				c0,0.6,0.5,1.1,1.1,1.1s1.1-0.5,1.1-1.1c0-0.6-0.5-1.1-1.1-1.1c0.3-0.2,0.6-0.3,0.9-0.2c1.1,0,2,0.9,2,2.1c0,0.3-0.1,0.7-0.2,0.9
				c-0.9,2.5-3.3,1.9-4.1,1.6s-4.1-1.6-5.4-2l-0.1,0.1c-1.6-0.7-3.3-1.2-5-1.6c-4.7-1-5,2.2-5,2.2s0.4-1.4,3.5-1.1
				c1.3,0.1,2,0.5,5,1.7l0,0c1.3,0.5,4.5,1.7,5.5,2.1C292.3,161.6,294.1,157.9,293.8,156.1"/>
			<path class="st0" d="M324.1,160.4c-1.9,0.1-3.7-0.9-4.6-2.5c-1.1,0.8-2.5,1.2-3.9,1.1c-4.9,0-7.8-4.4-7.8-10.4s2.8-10.4,7.8-10.4
				c4.9,0,7.8,4.4,7.8,10.4c0,3.4-0.9,6.3-2.7,8.1c0.6,1.3,1.9,2.1,3.4,1.9V160.4z M316.1,152.6c1.6,0.3,3,1.3,3.8,2.7
				c1.2-2,1.8-4.3,1.6-6.6c0-5.7-2.4-8.9-6-8.9c-3.7,0-6,3.2-6,8.9s2.3,8.9,6,8.9c1.1,0,2.2-0.3,3.1-1c-0.8-1.5-1.5-2-2.6-2.1
				L316.1,152.6z"/>
			<path class="st0" d="M335.4,144.2v14.5h-1.6v-2.3c-1.5,1.6-2.8,2.6-4.8,2.6c-2.9,0-4.2-1.7-4.2-4.9v-9.9h1.6v9.8
				c0,2.4,0.7,3.7,2.9,3.7c1.7,0,2.7-1.1,4.5-2.8v-10.7L335.4,144.2z"/>
			<path class="st0" d="M338.4,151.6c0,3.3,1.3,6.1,4.5,6.1c1.8,0,2.7-0.6,4.1-2.9l1.3,0.7c-1.5,2.6-2.9,3.5-5.6,3.5
				c-3.7,0-6-2.4-6-7.5c0-4.5,2.2-7.5,5.8-7.5c3.8,0,5.7,3.1,5.7,7.6L338.4,151.6z M346.6,150.2c-0.3-3-1.6-4.9-4.1-4.9
				c-2.9,0-4.1,3-4.1,4.9H346.6z"/>
			<path class="st0" d="M351.2,151.6c0,3.3,1.3,6.1,4.5,6.1c1.8,0,2.7-0.6,4.1-2.9l1.3,0.7c-1.5,2.6-2.9,3.5-5.6,3.5
				c-3.7,0-6-2.4-6-7.5c0-4.5,2.2-7.5,5.8-7.5c3.8,0,5.7,3.1,5.7,7.6L351.2,151.6z M359.4,150.2c-0.3-3-1.6-4.9-4.1-4.9
				c-2.9,0-4.1,3-4.1,4.9H359.4z"/>
			<path class="st0" d="M362.5,158.8v-14.5h1.6v2.3c1.5-1.6,2.8-2.6,4.8-2.6c2.9,0,4.2,1.7,4.2,4.9v9.9h-1.6V149
				c0-2.4-0.7-3.7-2.9-3.7c-1.7,0-2.7,1.1-4.5,2.8v10.7L362.5,158.8z"/>
		</g>
		<polygon class="st0" points="381.6,158.8 381.6,138.6 384.7,138.6 390.1,155.7 390.2,155.7 395.6,138.6 398.8,138.6 398.8,158.8 
			397,158.8 397,140.1 397,140.1 391,158.8 389.3,158.8 383.4,140.1 383.4,140.1 383.4,158.8 		"/>
		<g>
			<path class="st0" d="M409.3,158.8l-0.2-1.8c-1.4,1.3-3.2,2-5.1,2c-2,0.1-3.7-1.4-3.9-3.4c0-0.1,0-0.3,0-0.4c0-4,3.2-4.7,9.1-6v-1
				c0-1.9-0.8-2.9-3.2-2.9c-1.7,0.1-3.3,1.1-4.1,2.6l-1.1-0.7c0.9-2.1,3-3.4,5.3-3.3c3.2,0,4.7,1.3,4.7,4.5v7.6
				c0,0.9,0.1,1.8,0.2,2.7L409.3,158.8z M409,150.6c-6.5,1.5-7.3,2.8-7.3,4.7c-0.1,1.3,0.9,2.4,2.2,2.5c0.1,0,0.2,0,0.3,0
				c1.9-0.1,3.6-1,4.8-2.4L409,150.6z"/>
			<path class="st0" d="M412.4,158.8v-14.5h1.6v2.8h0.1c0.6-1.7,2.2-2.9,4.1-3h0.7v1.6h-0.7c-1.8,0-4.1,2.2-4.1,5v8.2L412.4,158.8z"
				/>
			<path class="st0" d="M425.4,156.1L425.4,156.1l4-11.8h1.8l-5.3,15.5c-1,2.9-2,4.1-4.5,4.1c-0.5,0-1,0-1.5-0.2v-1.4
				c0.5,0.1,1.1,0.2,1.6,0.2c1.2,0,2.4-1,3.2-4l-4.9-14.3h1.8L425.4,156.1z"/>
			<path class="st0" d="M310.1,164.9v6c0,0.8,0.3,1.3,1.1,1.3c0.8,0,1.1-0.4,1.1-1.3v-6h1.6v6c-0.1,1.5-1.4,2.7-2.9,2.6
				c-1.4-0.1-2.5-1.2-2.6-2.6v-6H310.1z"/>
			<path class="st0" d="M314.9,173.5V167h1.4v0.7c0.4-0.5,1-0.8,1.6-0.9c0.9,0,1.4,0.5,1.4,1.7v4.9h-1.5v-4.8c0-0.4-0.1-0.7-0.5-0.7
				c-0.4,0.1-0.7,0.3-1,0.6v4.9H314.9z"/>
		</g>
		<path class="st0" d="M320.2,173.5h1.5V167h-1.5V173.5z M320.2,165.9h1.5v-1.4h-1.5V165.9z"/>
		<polygon class="st0" points="324.8,171.2 324.8,171.2 325.8,167 327.2,167 325.5,173.5 324.1,173.5 322.4,167 323.8,167 		"/>
		<g>
			<path class="st0" d="M328.8,170.6v0.8c-0.1,0.4,0.3,0.9,0.7,0.9c0.1,0,0.1,0,0.2,0c0.4,0,0.8-0.3,0.9-0.7c0-0.1,0-0.1,0-0.2h1.5
				c0,1.1-0.9,2.1-2,2.1c-0.1,0-0.2,0-0.3,0c-1.2,0.1-2.2-0.8-2.3-2c0-0.1,0-0.2,0-0.3v-2.1c0.1-1.3,1.1-2.3,2.4-2.2
				c1.2,0,2.1,1,2.2,2.1v1.5L328.8,170.6z M330.6,169.4V169c0-0.6-0.3-0.9-0.9-0.9s-0.9,0.4-0.9,0.9v0.4L330.6,169.4z"/>
			<path class="st0" d="M332.8,173.5V167h1.4v0.9l0,0c0.2-0.6,0.8-1,1.5-1v1.6c-0.3-0.1-0.5-0.1-0.8-0.2c-0.4,0-0.7,0.3-0.7,0.7
				c0,0,0,0,0,0v4.4L332.8,173.5z"/>
			<path class="st0" d="M339.4,169c-0.1-0.5-0.5-0.8-1-0.9c-0.3,0-0.6,0.2-0.6,0.5c0,0,0,0,0,0c0,1,2.9,1,2.9,3c0.1,1-0.7,1.9-1.8,2
				c-0.1,0-0.2,0-0.3,0c-0.9,0-1.7-0.2-2.4-1.9l1.3-0.4c0,0.6,0.5,1,1.1,1c0.5,0,0.7-0.2,0.7-0.6c0-1.2-2.9-0.9-2.9-3.1
				c0-1,0.8-1.8,1.8-1.8c0.1,0,0.1,0,0.2,0c1,0,1.9,0.6,2.2,1.6L339.4,169z"/>
		</g>
		<path class="st0" d="M341.2,173.5h1.5V167h-1.5V173.5z M341.2,165.9h1.5v-1.4h-1.5V165.9z"/>
		<g>
			<path class="st0" d="M343.4,168.5v-1.2h0.6v-1.8h1.5v1.8h0.9v1.2h-0.9v3.3c0,0.3,0.3,0.5,0.7,0.5h0.3v1.3c-0.3,0-0.6,0.1-0.8,0.1
				c-1,0-1.6-0.4-1.6-1.3v-3.8L343.4,168.5z"/>
			<path class="st0" d="M347.2,174.4c0.1,0,0.3,0,0.4,0c0.5,0,1-0.4,1.1-0.9c0-0.5-0.1-0.9-0.3-1.4L347,167h1.5l1,4.3l0,0l0.9-4.3
				h1.5l-1.6,6.5c-0.5,1.8-1,2.3-2.5,2.3h-0.5L347.2,174.4z"/>
			<path class="st0" d="M354.7,169.3c0-1.7,0.9-2.5,2.3-2.5s2.3,0.7,2.3,2.5v1.8c0,1.7-0.9,2.5-2.3,2.5c-1.5,0-2.3-0.7-2.3-2.5
				V169.3z M356.2,171.5c0,0.5,0.3,0.8,0.9,0.8c0.5,0,0.9-0.3,0.9-0.8V169c0-0.5-0.4-0.8-0.9-0.8c-0.5,0-0.9,0.3-0.9,0.8V171.5z"/>
			<path class="st0" d="M362.9,166.1h-0.4c-0.3,0-0.5,0.2-0.5,0.5v0.7h0.9v1.2H362v5h-1.5v-5h-0.7v-1.2h0.7v-0.6
				c0-1.5,0.6-1.9,1.7-1.9c0.2,0,0.5,0,0.7,0.1V166.1z"/>
		</g>
		<polygon class="st0" points="366.3,173.5 366.3,164.9 367.9,164.9 367.9,172 370.5,172 370.5,173.5 		"/>
		<g>
			<path class="st0" d="M371.1,169.3c0-1.7,0.9-2.5,2.3-2.5c1.5,0,2.3,0.7,2.3,2.5v1.8c0,1.7-0.9,2.5-2.3,2.5s-2.3-0.7-2.3-2.5
				V169.3z M372.5,171.5c0,0.5,0.4,0.8,0.9,0.8c0.5,0,0.9-0.3,0.9-0.8V169c0-0.5-0.3-0.8-0.9-0.8c-0.5,0-0.9,0.3-0.9,0.8V171.5z"/>
			<path class="st0" d="M376.6,173.5V167h1.4v0.7c0.4-0.5,1-0.8,1.6-0.9c0.9,0,1.4,0.5,1.4,1.7v4.9h-1.5v-4.8c0-0.4-0.1-0.7-0.5-0.7
				c-0.4,0-0.6,0.3-1,0.6v4.9H376.6z"/>
			<path class="st0" d="M385,173.5v-0.8l0,0c-0.4,0.5-0.9,0.9-1.6,0.9c-1.1,0-1.6-0.9-1.6-2.6v-1.6c0-1.7,0.5-2.6,1.6-2.6
				c0.6,0.1,1.1,0.3,1.5,0.7v-2.7h1.5v8.6L385,173.5z M384.9,168.5c-0.2-0.3-0.5-0.4-0.9-0.5c-0.4,0-0.7,0.3-0.7,1.5v1.4
				c0,1.3,0.3,1.5,0.7,1.5c0.4,0,0.7-0.2,0.9-0.5V168.5z"/>
			<path class="st0" d="M387.1,169.3c0-1.7,0.9-2.5,2.3-2.5s2.3,0.7,2.3,2.5v1.8c0,1.7-0.9,2.5-2.3,2.5s-2.3-0.7-2.3-2.5V169.3z
				 M388.6,171.5c0,0.5,0.3,0.8,0.9,0.8s0.9-0.3,0.9-0.8V169c0-0.5-0.3-0.8-0.9-0.8s-0.9,0.3-0.9,0.8V171.5z"/>
			<path class="st0" d="M392.7,173.5V167h1.4v0.7c0.4-0.5,1-0.8,1.6-0.9c0.9,0,1.4,0.5,1.4,1.7v4.9h-1.5v-4.8c0-0.4-0.1-0.7-0.5-0.7
				c-0.4,0.1-0.7,0.3-1,0.6v4.9H392.7z"/>
		</g>
		<path class="st0" d="M452.9,128.1h1.2v52.5h-1.2V128.1z"/>
	</g>
</g>
</svg>
