<svg width="95" height="30" viewBox="0 0 95 30" fill="none" xmlns="http://www.w3.org/2000/svg">
<path d="M62.9833 4.84292C62.9833 4.84292 61.5587 5.41389 59.9018 7.25244C58.2449 9.09098 57.2799 11.1584 57.9941 11.7082C58.2684 11.9172 58.901 11.957 60.0488 10.9121C61.1082 9.98615 61.9397 8.82539 62.478 7.52113C63.2193 5.70124 62.9833 4.86531 62.9833 4.84541M72.0513 8.15056C70.2102 7.20019 68.8647 6.03586 67.4648 5.31562C66.1291 4.62523 65.2655 4.33664 64.1856 4.48218C64.0349 4.50921 63.8863 4.54662 63.7407 4.59413C63.7407 4.59413 64.2968 6.50607 62.0838 9.71793C59.8425 12.9746 57.8087 12.9522 57.2305 12.0578C56.625 11.1136 57.4072 9.18925 58.7132 7.47635C60.081 5.68507 62.4829 4.1998 62.4829 4.1998C62.4829 4.1998 61.7169 3.72835 59.8363 4.80187C58.0015 5.84429 54.8433 8.33218 51.9125 12.528C48.9817 16.7238 48.401 19.0326 47.9809 20.85C47.5608 22.6674 47.9426 24.6141 49.9443 24.6141C51.9459 24.6141 54.2762 21.5403 54.9335 20.4718C56.1555 18.4815 56.9525 15.4289 55.2894 15.8481C54.4702 16.0546 53.8067 16.9676 53.3878 17.8471C53.1234 18.412 52.9212 19.0043 52.7849 19.6135C52.2037 19.8546 51.6579 20.1743 51.1625 20.5638C50.6114 20.9748 50.0964 21.4326 49.623 21.9322C49.623 21.9322 49.6304 20.4793 50.7807 18.1282C51.9311 15.7772 54.0427 14.7036 55.2387 14.6029C56.3161 14.5158 57.7185 15.4363 56.5299 18.8323C55.3413 22.2282 51.8347 26.3569 48.1514 26.4079C44.7523 26.4552 42.5283 22.0877 47.2593 14.466C52.4957 6.04581 58.6378 3.46215 60.632 3.1748C62.6263 2.88745 63.2749 3.77313 63.2749 3.77313C64.4754 3.2773 65.7719 3.06209 67.0669 3.1437C69.5023 3.30914 71.3853 5.04444 73.8713 6.2635C73.2251 6.88547 72.6085 7.53854 72.0525 8.15056M82.9923 5.31562C81.3045 6.40531 78.9693 7.393 76.7255 7.18153C76.1571 7.7724 75.5492 8.45657 74.9401 9.20294C78.8309 9.97791 82.2399 7.55098 84.0525 5.48479C84.7133 4.74193 85.2809 3.92016 85.7427 3.03796C84.9175 3.90331 83.9939 4.66779 82.9911 5.31562M77.8103 16.3519C77.8398 16.3002 77.8638 16.2456 77.882 16.1889C77.8704 16.0992 77.8287 16.0162 77.7637 15.9537C77.6987 15.8912 77.6144 15.8531 77.5249 15.8456C77.1542 15.8282 76.6489 15.8991 75.3231 17.3769C74.2232 18.5973 73.2767 19.9492 72.5047 21.4023C71.7461 22.798 71.4384 23.8379 71.8746 24.1066C72.0163 24.1805 72.1806 24.1974 72.3342 24.1539C72.6295 24.083 72.9644 23.8043 73.4734 23.211C73.7119 22.9323 73.9763 22.538 74.2926 22.1014C75.1699 20.8997 77.3741 17.1169 77.8103 16.3519ZM64.0385 17.959C64.2597 17.3769 64.5414 16.2337 63.9557 15.7846C63.3268 15.3082 61.723 16.4265 61.7144 17.5734C61.7033 18.7477 62.8437 19.2789 63.1168 19.3535C63.2725 19.3958 63.3268 19.3896 63.4022 19.2639C63.6441 18.8443 63.8567 18.4083 64.0385 17.959ZM62.8252 20.0949C62.4277 19.9101 62.057 19.672 61.723 19.3871C61.3882 19.1043 61.1083 18.7614 60.8977 18.3758C60.8754 18.3384 60.8532 18.367 60.8285 18.4006C60.8038 18.4342 60.7049 18.525 59.8499 19.7864C58.9949 21.0477 57.6815 23.6613 58.8701 24.1066C59.6312 24.3915 60.8977 23.0492 61.5884 22.1598C62.0589 21.539 62.4855 20.8856 62.8647 20.2044C62.9006 20.1285 62.8647 20.1111 62.8264 20.0949M76.3091 23.1139C75.9866 23.6339 75.6184 24.6315 76.6798 24.0108C77.9783 23.2557 79.828 20.4307 79.828 20.4307H80.667C79.9036 21.6125 79.0536 22.7351 78.1241 23.7894C76.8083 25.2572 75.2032 26.5907 74.0727 26.4589C72.7518 26.3034 73.1658 24.5581 73.1658 24.5581C73.1658 24.5581 71.2766 26.5833 69.9693 26.4377C68.2037 26.2412 68.7424 24.0444 68.7424 24.0444C68.7424 24.0444 66.7457 26.5111 65.3853 26.4353C63.2527 26.3109 63.7889 23.6986 64.382 21.8588C64.6996 20.8748 64.9936 20.1023 64.9936 20.1023C64.9936 20.1023 64.7823 20.1583 64.3276 20.2267C64.0904 20.2603 63.658 20.2852 63.658 20.2852C63.658 20.2852 62.7696 21.8625 62.0591 22.8104C61.3487 23.7583 58.3289 27.0261 56.5521 26.3718C54.9088 25.7673 55.4525 23.2346 56.4088 21.2219C57.805 18.2874 61.7317 14.0717 63.9965 14.629C66.3441 15.2025 64.0496 19.5152 64.0496 19.5152C64.0496 19.5152 64.0496 19.5314 64.0744 19.5426C64.1213 19.56 64.2436 19.5737 64.5266 19.5177C64.8198 19.4575 65.1072 19.3713 65.3853 19.2602C65.3853 19.2602 67.7453 14.2844 70.3523 11.029C72.9594 7.77365 78.16 2.1672 80.2012 3.5231C80.6954 3.85648 80.473 5.00463 79.8008 6.39785C79.4981 6.49685 79.1904 6.57989 78.8791 6.64664C79.3288 5.82439 79.6266 5.13152 79.7156 4.64762C80.0232 2.96581 76.1225 6.51353 73.335 10.325C71.656 12.6227 70.1643 15.0534 68.8746 17.5933C69.3781 17.2841 69.8588 16.9387 70.3128 16.5596C71.5562 15.5217 72.7378 14.411 73.8515 13.2333C74.924 12.1279 75.9299 10.959 76.8639 9.73285C77.1606 9.71841 77.4563 9.68768 77.7498 9.6408C76.7314 11.0323 75.621 12.3531 74.4261 13.594C73.314 14.726 72.1106 15.9439 71.0653 16.8283C70.1316 17.6277 69.1468 18.3644 68.1172 19.0338C68.1172 19.0338 65.6794 23.9834 67.0052 24.3006C67.7848 24.4897 69.3243 22.1026 69.3243 22.1026C69.3243 22.1026 71.3334 19.0164 72.5443 17.6244C74.1962 15.7336 75.6184 14.639 77.0393 14.6191C77.8671 14.6041 78.3552 15.4898 78.3552 15.4898L78.7444 14.8828H81.1414C81.1414 14.8828 76.6649 22.5305 76.3066 23.1065M82.9911 5.31562C81.3033 6.40531 78.9681 7.393 76.7242 7.18153C76.1559 7.7724 75.548 8.45657 74.9388 9.20294C78.8297 9.97791 82.2386 7.55098 84.0512 5.48479C84.7125 4.74199 85.2806 3.92023 85.7427 3.03796C84.9175 3.90331 83.9939 4.66779 82.9911 5.31562ZM49.3277 9.06735H47.048L45.7593 11.1634H48.039L49.3277 9.06735ZM38.5337 16.3257C39.5036 14.9873 42.1799 10.2964 42.1799 10.2964C42.1686 10.2068 42.1271 10.1238 42.0623 10.0613C41.9975 9.99879 41.9134 9.96058 41.824 9.95303C41.4533 9.93562 40.8355 10.0613 39.6086 11.6075C38.3817 13.1537 37.4291 14.384 36.7347 15.664C35.9735 17.0609 35.6412 18.0461 36.0786 18.3136C36.2205 18.3852 36.3836 18.402 36.537 18.3608C36.8211 18.2887 37.1931 18.0013 37.7034 17.4105C37.9431 17.1343 38.2149 16.7624 38.5337 16.3257ZM26.3014 9.98164C25.6713 9.50272 24.0687 10.6235 24.0601 11.7679C24.0502 12.9435 25.502 13.303 25.6898 13.3117C25.745 13.3163 25.8004 13.3046 25.8492 13.2781C25.8827 13.2584 25.9094 13.2289 25.9258 13.1935C26.0965 12.8558 26.2499 12.5095 26.3854 12.1561C26.6066 11.5739 26.8871 10.4307 26.3014 9.98164ZM25.3512 14.0282C24.9167 13.8915 24.5015 13.6992 24.1157 13.456C23.7418 13.2106 23.4378 12.8715 23.2335 12.472C23.2112 12.4347 23.1865 12.4633 23.1643 12.4969C23.142 12.5305 23.0135 12.6922 22.156 13.9585C21.2985 15.2249 20.0284 17.8147 21.2182 18.2601C21.9769 18.5499 23.2582 17.1965 23.9538 16.3108C24.4744 15.6148 24.9554 14.8897 25.3945 14.1389C25.4229 14.063 25.3945 14.0456 25.3525 14.0319M43.9702 14.8081H44.8055C44.8055 14.8081 40.6206 20.9034 38.2569 20.6198C36.9373 20.4643 37.329 18.8248 37.329 18.8248C37.329 18.8248 35.4756 21.0092 33.773 20.5663C32.2285 20.167 33.2256 17.5809 33.2256 17.5809C33.0502 17.6518 29.7079 21.4446 27.3591 20.5352C24.9015 19.5799 26.1779 16.4041 26.6449 15.4488C27.0415 14.6439 27.4802 13.8603 27.4802 13.8603C27.4802 13.8603 27.1033 13.9672 26.8624 14.022C26.6214 14.0767 26.273 14.1464 26.273 14.1464C26.273 14.1464 25.1103 16.0483 24.3999 16.9975C23.6894 17.9466 20.6696 21.2082 18.8904 20.5589C17.1112 19.9095 17.5523 17.403 18.5518 15.4127C20.1729 12.1847 24.0193 8.21773 26.336 8.8198C28.6762 9.42063 26.7388 13.242 26.7388 13.242C26.7388 13.242 27.2046 13.303 28.3204 12.5367C29.9266 11.4333 32.0469 8.46528 34.3426 8.81358C35.4249 8.97778 36.4332 10.0911 35.0543 12.2058C34.6144 12.885 33.8768 13.492 33.3121 12.8912C32.96 12.518 33.2676 11.8376 33.6371 11.3724C33.7808 11.1827 33.9687 11.0316 34.1842 10.9322C34.3997 10.8329 34.6361 10.7884 34.8726 10.8026C34.8726 10.8026 35.252 9.93188 34.287 9.94432C33.5061 9.95925 31.5292 11.7916 30.4134 13.6426C29.3904 15.3418 27.8397 18.2364 29.3965 18.8671C30.8236 19.4468 33.5394 16.2013 34.7973 14.5009C36.0551 12.8004 38.9216 8.94668 41.3261 8.79244C42.1539 8.7377 42.6469 9.49775 42.6469 9.49775L42.9249 9.05491H45.3294C45.3294 9.05491 40.801 16.6628 40.4476 17.2388C40.1696 17.6891 39.8001 18.7017 40.8183 18.1344C41.8364 17.5672 43.9702 14.8081 43.9702 14.8081ZM42.6617 26.9988C40.8913 25.7649 38.7714 25.1421 36.6197 25.2237C36.0374 25.2396 35.4669 25.3936 34.9547 25.6731C34.4425 25.9525 34.0029 26.3496 33.6717 26.8321C32.7549 25.2212 30.9423 24.2322 28.14 24.2546C23.6116 24.3069 19.1202 26.4091 15.5617 26.4066C12.1515 26.4066 9.66431 24.2484 9.74463 20.4158C9.89413 13.6898 15.5395 7.63308 19.7528 4.90761C22.182 3.34148 24.2133 2.87625 25.5415 3.02677C26.5102 3.13499 27.6754 4.262 26.9402 5.92266C25.8603 8.34959 24.369 8.15056 24.4246 6.98996C24.4555 6.23489 24.9546 5.75971 25.3302 5.49723C25.5687 5.33179 25.99 5.28452 26.21 5.27954C26.4237 5.09793 26.5807 3.7694 24.8508 4.20602C23.121 4.64265 21.0205 6.35929 19.0263 8.57723C17.0321 10.7952 13.9271 14.9873 13.1598 19.3896C12.8015 21.4309 13.0362 25.154 17.8439 25.1117C21.9213 25.0781 27.9311 22.375 33.4542 22.431C35.5979 22.4522 37.4636 23.0343 38.9179 23.9374C40.3463 24.8231 42.0588 26.1168 42.6667 27" fill="white" fill-opacity="0.4"/>
</svg>
