<?xml version="1.0" encoding="UTF-8"?>
<svg id="Layer_1" data-name="Layer 1" xmlns="http://www.w3.org/2000/svg" viewBox="0 0 262.29 47.83">
  <defs>
    <style>
      .cls-1 {
        stroke-width: 0px;
      }
    </style>
  </defs>
  <path class="cls-1" d="M4.33,13.34c-.88,0-1.49-.22-1.84-.66-.35-.44-.53-.98-.53-1.62v-5.85H0v-1.32h.63c.54,0,.93-.1,1.15-.31.22-.2.33-.56.33-1.07v-1.15h1.48v2.52h2.32v1.32h-2.32v5.63c0,.78.39,1.17,1.17,1.17.3,0,.6-.05.93-.15v1.28c-.49.14-.94.2-1.35.2h0Z"/>
  <path class="cls-1" d="M12.97,3.71c1.01,0,1.83.31,2.44.94s.93,1.53.93,2.69v5.82h-1.61v-5.47c0-.85-.2-1.49-.6-1.92-.4-.43-.92-.64-1.56-.64-.68,0-1.25.23-1.71.69-.46.46-.69,1.15-.69,2.05v5.28h-1.61V0h1.61v5h.13c.63-.86,1.53-1.3,2.69-1.3Z"/>
  <path class="cls-1" d="M27.92,8.34c0,.09-.01.28-.04.57h-6.91c.05.93.33,1.67.84,2.24.51.57,1.19.85,2.05.85.6,0,1.12-.13,1.55-.4.43-.27.72-.65.88-1.16h1.58c-.2.91-.65,1.62-1.37,2.13-.72.51-1.59.76-2.63.76-1.32,0-2.4-.43-3.24-1.3s-1.26-2.01-1.26-3.43.42-2.66,1.26-3.56c.84-.9,1.9-1.35,3.17-1.35,1.19,0,2.17.4,2.95,1.2.78.8,1.18,1.95,1.18,3.43h0ZM25.63,5.78c-.47-.49-1.08-.74-1.83-.74s-1.39.26-1.9.77-.81,1.15-.9,1.92h5.36c-.01-.8-.25-1.45-.72-1.95Z"/>
  <path class="cls-1" d="M1.74,19.39c-.3,0-.55-.11-.77-.31-.22-.21-.32-.46-.32-.76s.11-.55.32-.75c.22-.2.47-.31.77-.31s.53.1.74.31.31.45.31.75-.11.55-.31.76c-.21.21-.46.31-.74.31ZM.92,30.14v-9.26h1.61v9.26H.92Z"/>
  <path class="cls-1" d="M5.98,30.14v-9.26h1.46l.15,1.11h.13c.63-.86,1.53-1.3,2.69-1.3,1.01,0,1.83.31,2.44.94s.93,1.53.93,2.69v5.82h-1.61v-5.47c0-.85-.2-1.49-.6-1.92-.4-.43-.92-.64-1.56-.64-.68,0-1.25.23-1.71.69-.46.46-.69,1.15-.69,2.05v5.28h-1.61Z"/>
  <path class="cls-1" d="M17.25,30.14v-9.26h1.46l.15,1.11h.13c.63-.86,1.53-1.3,2.69-1.3,1.01,0,1.83.31,2.44.94s.93,1.53.93,2.69v5.82h-1.61v-5.47c0-.85-.2-1.49-.6-1.92-.4-.43-.92-.64-1.56-.64-.68,0-1.25.23-1.71.69-.46.46-.69,1.15-.69,2.05v5.28h-1.61Z"/>
  <path class="cls-1" d="M32.72,30.32c-1.33,0-2.44-.46-3.33-1.38-.88-.92-1.33-2.07-1.33-3.44s.44-2.55,1.32-3.46,1.99-1.36,3.34-1.36,2.44.46,3.34,1.37,1.33,2.06,1.33,3.45-.44,2.53-1.33,3.45-2,1.37-3.35,1.37h0ZM30.55,27.91c.56.66,1.29.99,2.18.99s1.62-.33,2.2-.99.86-1.46.86-2.4-.29-1.76-.86-2.41c-.57-.65-1.31-.98-2.2-.98s-1.63.33-2.19.98c-.56.65-.83,1.46-.83,2.41s.28,1.74.84,2.4Z"/>
  <path class="cls-1" d="M42.64,30.14l-3.52-9.26h1.69l2.78,7.58h.13l2.78-7.58h1.69l-3.52,9.26h-2.02,0Z"/>
  <path class="cls-1" d="M58.22,28.88h.24v1.26h-.74c-.91,0-1.46-.4-1.65-1.19-.72.91-1.73,1.37-3.06,1.37-.91,0-1.65-.23-2.21-.68-.56-.45-.84-1.11-.84-1.97s.29-1.5.86-1.97c.57-.48,1.34-.76,2.29-.86l2.76-.26v-.52c0-.64-.17-1.14-.5-1.5-.33-.36-.81-.54-1.43-.54-1.11,0-1.78.59-2,1.76h-1.61c.1-.91.47-1.66,1.1-2.23.64-.57,1.47-.86,2.51-.86s1.94.3,2.58.89c.65.59.97,1.43.97,2.52v4.02c0,.51.24.76.72.76h0ZM55.87,26.58v-.82l-2.24.22c-.63.06-1.13.23-1.49.5-.37.27-.55.65-.55,1.13s.15.84.46,1.07.71.34,1.19.34c.71,0,1.32-.2,1.84-.6.53-.4.79-1.02.79-1.84h0Z"/>
  <path class="cls-1" d="M64.18,30.32c-.88,0-1.49-.22-1.84-.66-.35-.44-.53-.98-.53-1.62v-5.85h-1.96v-1.32h.63c.54,0,.93-.1,1.15-.31s.33-.56.33-1.07v-1.15h1.48v2.52h2.32v1.32h-2.32v5.63c0,.78.39,1.17,1.17,1.17.3,0,.6-.05.93-.15v1.28c-.49.14-.94.2-1.35.2h0Z"/>
  <path class="cls-1" d="M69.21,19.39c-.3,0-.55-.11-.77-.31-.22-.21-.32-.46-.32-.76s.11-.55.32-.75.47-.31.77-.31.53.1.74.31.31.45.31.75-.11.55-.31.76c-.21.21-.46.31-.74.31ZM68.39,30.14v-9.26h1.61v9.26h-1.61Z"/>
  <path class="cls-1" d="M77.71,30.32c-1.33,0-2.44-.46-3.33-1.38s-1.33-2.07-1.33-3.44.44-2.55,1.32-3.46c.88-.91,1.99-1.36,3.34-1.36s2.44.46,3.34,1.37,1.33,2.06,1.33,3.45-.44,2.53-1.33,3.45-2,1.37-3.35,1.37h0ZM75.53,27.91c.56.66,1.29.99,2.18.99s1.62-.33,2.2-.99.86-1.46.86-2.4-.29-1.76-.86-2.41-1.31-.98-2.2-.98-1.63.33-2.19.98c-.56.65-.83,1.46-.83,2.41s.28,1.74.84,2.4Z"/>
  <path class="cls-1" d="M85.44,30.14v-9.26h1.46l.15,1.11h.13c.63-.86,1.53-1.3,2.69-1.3,1.01,0,1.83.31,2.44.94s.93,1.53.93,2.69v5.82h-1.61v-5.47c0-.85-.2-1.49-.6-1.92-.4-.43-.92-.64-1.56-.64-.68,0-1.25.23-1.71.69-.46.46-.69,1.15-.69,2.05v5.28h-1.61Z"/>
  <path class="cls-1" d="M5.35,38.19c1.01,0,1.83.31,2.44.94.62.63.93,1.53.93,2.69v5.82h-1.61v-5.47c0-.85-.2-1.49-.6-1.92-.4-.43-.92-.64-1.56-.64-.68,0-1.25.23-1.71.69-.46.46-.69,1.15-.69,2.05v5.28H.93v-13.16h1.61v5h.13c.63-.86,1.53-1.3,2.69-1.3h0Z"/>
  <path class="cls-1" d="M19.94,38.38v9.26h-1.46l-.15-1.11h-.13c-.63.86-1.53,1.3-2.69,1.3-1.01,0-1.83-.31-2.44-.94s-.93-1.53-.93-2.69v-5.82h1.61v5.47c0,.85.2,1.49.6,1.92.4.43.92.64,1.56.64.69,0,1.27-.23,1.72-.69s.68-1.15.68-2.05v-5.28h1.61Z"/>
  <path class="cls-1" d="M28,38.19c1.25,0,2.27.44,3.07,1.32s1.19,2.04,1.19,3.48-.4,2.6-1.19,3.49c-.8.9-1.82,1.34-3.07,1.34s-2.27-.5-2.98-1.5h-.11l-.15,1.32h-1.33v-13.16h1.61v5.11c.67-.94,1.65-1.41,2.96-1.41ZM27.79,46.4c.84,0,1.53-.31,2.06-.94s.8-1.45.8-2.47-.27-1.81-.8-2.44c-.53-.62-1.22-.94-2.06-.94s-1.5.31-2,.94c-.51.62-.76,1.44-.76,2.44s.25,1.85.76,2.47c.51.62,1.17.94,2,.94Z"/>
  <path class="cls-1" d="M36.85,47.41c-.21.22-.47.32-.78.32s-.57-.11-.79-.32-.32-.47-.32-.77.11-.57.32-.79.48-.32.79-.32.57.11.78.32c.21.22.31.48.31.79s-.11.55-.31.77Z"/>
  <g>
    <path class="cls-1" d="M213.16,25.03h-1.8v-9.08h1.8v9.08Z"/>
    <path class="cls-1" d="M220.99,21.52v3.51h-1.72v-3.12c0-.22.15-1.85-1.09-1.92-.61-.04-1.7.3-1.7,2v3.04h-1.71v-6.48h1.32l.22.79h.22c.27-.33.88-.86,1.97-.86,1.67,0,2.49,1.24,2.49,3.03h0Z"/>
    <path class="cls-1" d="M228.61,21.52v3.51h-1.72v-3.12c0-.22.15-1.85-1.09-1.92-.61-.04-1.7.3-1.7,2v3.04h-1.71v-6.48h1.32l.22.79h.22c.27-.33.88-.86,1.97-.86,1.67,0,2.49,1.24,2.49,3.03h0Z"/>
    <path class="cls-1" d="M229.72,21.81c0-2.07,1.61-3.32,3.34-3.32s3.28,1.26,3.28,3.29-1.58,3.32-3.33,3.32-3.29-1.26-3.29-3.29ZM234.65,21.79c0-1.01-.6-1.8-1.58-1.8s-1.65.79-1.65,1.8.66,1.8,1.65,1.8,1.58-.79,1.58-1.8Z"/>
    <path class="cls-1" d="M243.43,18.55l-2.1,6.48h-2.51l-2.1-6.48h1.72l1.5,4.77h.26l1.5-4.77s1.72,0,1.72,0Z"/>
    <path class="cls-1" d="M250.33,23.79v1.24h-.39c-.75,0-1.29-.27-1.5-.83-.39.53-1.04.89-2.05.89-1.47,0-2.4-.75-2.4-1.92,0-2.02,2.76-2.2,4-2.27-.03-.75-.44-1.02-1.1-1.02-.92,0-.99.56-.99.56h-1.62c.12-1.16,1.06-1.95,2.64-1.95s2.63.76,2.63,2.64v1.72c0,.75.27.93.76.93h0ZM247.97,22.31v-.13c-1.18.13-2.35.27-2.35.94,0,.99,2.25.91,2.35-.81Z"/>
    <path class="cls-1" d="M255.54,24.55s-.54.54-1.54.54c-1.24,0-2.32-.84-2.32-2.15v-3.01h-1.29v-1.27h.65c.44,0,.74-.3.74-.76v-1.29h1.57v1.95h1.63v1.39h-1.63v2.91c0,.44.36.78.83.78.39,0,.75-.22.75-.22l.62,1.16h0Z"/>
    <path class="cls-1" d="M262.27,22.29h-4.73c.2.99,1,1.34,1.7,1.34.88,0,1.26-.54,1.26-.54h1.63c-.49,1.29-1.67,2.01-2.94,2.01-1.75,0-3.28-1.34-3.28-3.36s1.52-3.26,3.23-3.26,3.34,1.16,3.14,3.8h0ZM257.64,20.98h2.91c-.2-.76-.73-1.08-1.37-1.08-.71,0-1.29.4-1.54,1.08Z"/>
    <path class="cls-1" d="M218.54,34.42c0,2.78-1.65,3.95-3.64,3.95s-3.67-1.17-3.67-3.95v-5.18h1.8v5.06c0,1.48.62,2.37,1.87,2.37s1.84-.89,1.84-2.37v-5.06h1.8v5.18Z"/>
    <path class="cls-1" d="M222.61,34.49h-.75v3.82h-1.74v-9.08h1.74v3.57h.73l2.3-3.57h1.98l-2.83,4.4,3.21,4.67h-2l-2.64-3.82h0Z"/>
  </g>
  <path class="cls-1" d="M142.98,30.28h5.14v9.28h-5.46v2.18l-3.84-5.04c2.92-.54,4.43-2.05,4.43-4.69,0-.65-.09-1.23-.28-1.74h0ZM136.01,30.28h-4.26v3.51h4.26c1.75,0,2.46-.7,2.46-1.77s-.71-1.74-2.46-1.74ZM162.91,7.17v39.93h-40.21V7.17h40.21,0ZM158.23,11.57h-4.66l-6.26,6.66v-6.66h-9.05v8.85c0,1.9-1.4,2.99-3.26,2.99s-3.26-1.1-3.26-2.99v-8.85h-4.66v8.92c0,3.99,3.23,6.29,6.86,6.66h-6.86v15.57h4.66v-5.77h2.03l4.3,5.77h20.15v-3.15h-5.46v-9.28h5.46v-4.11l-6.67-6.83,6.67-6.81v-.97h0ZM142.66,29.6v-7.22c-.84,2.83-3.63,4.45-6.66,4.77,3.39,0,5.66.78,6.66,2.46h0ZM147.32,27.13h6.26l-6.26-6.69v6.69Z"/>
  <path class="cls-1" d="M182.21,7.17V2.16h-19.59v44.93h39.93V7.17h-20.34ZM164.02,45.7v-5.25h24.2v5.25h-24.2ZM201.15,45.7h-11.53v-6.64h-25.6V3.56h16.79v14.71h20.34v27.43ZM182.21,16.87v-8.31h18.94v8.31h-18.94Z"/>
  <rect class="cls-1" x="107.72" y="5.15" width=".68" height="38.96"/>
</svg>