<?xml version="1.0" encoding="UTF-8" standalone="no"?>
<!-- Created with Inkscape (http://www.inkscape.org/) -->

<svg
   version="1.1"
   id="svg2"
   width="1175.8533"
   height="360.492"
   viewBox="0 0 1175.8533 360.492"
   sodipodi:docname="RAE Logo_White.ai"
   xmlns:inkscape="http://www.inkscape.org/namespaces/inkscape"
   xmlns:sodipodi="http://sodipodi.sourceforge.net/DTD/sodipodi-0.dtd"
   xmlns="http://www.w3.org/2000/svg"
   xmlns:svg="http://www.w3.org/2000/svg">
  <defs
     id="defs6">
    <clipPath
       clipPathUnits="userSpaceOnUse"
       id="clipPath68">
      <path
         d="M 0,270.369 H 881.89 V 0 H 0 Z"
         id="path66" />
    </clipPath>
  </defs>
  <sodipodi:namedview
     id="namedview4"
     pagecolor="#ffffff"
     bordercolor="#000000"
     borderopacity="0.25"
     inkscape:showpageshadow="2"
     inkscape:pageopacity="0.0"
     inkscape:pagecheckerboard="0"
     inkscape:deskcolor="#d1d1d1" />
  <g
     id="g8"
     inkscape:groupmode="layer"
     inkscape:label="RAE Logo_White"
     transform="matrix(1.3333333,0,0,-1.3333333,0,360.492)">
    <g
       id="g10"
       transform="translate(129.3384,249.3605)">
      <path
         d="M 0,0 -2.412,-2.846 5.65,-6.467 Z"
         style="fill:#ffffff;fill-opacity:1;fill-rule:nonzero;stroke:none"
         id="path12" />
    </g>
    <g
       id="g14"
       transform="translate(129.3381,240.3306)">
      <path
         d="M 0,0 0.42,-0.19 0.131,0.152 Z"
         style="fill:#ffffff;fill-opacity:1;fill-rule:nonzero;stroke:none"
         id="path16" />
    </g>
    <g
       id="g18"
       transform="translate(63.5605,27.9074)">
      <path
         d="M 0,0 3.65,-7.72 H 26.016 L 29.599,-0.062 6.253,10.173 Z"
         style="fill:#ffffff;fill-opacity:1;fill-rule:nonzero;stroke:none"
         id="path20" />
    </g>
    <g
       id="g22"
       transform="translate(55.5488,44.8371)">
      <path
         d="m 0,0 4.195,-8.863 9.544,15.245 36.37,-16.499 -6.543,-14.532 h 9.058 l 8.395,18.651 -50.445,22.887 z"
         style="fill:#ffffff;fill-opacity:1;fill-rule:nonzero;stroke:none"
         id="path24" />
    </g>
    <g
       id="g26"
       transform="translate(48.3208,60.1145)">
      <path
         d="M 0,0 3.745,-7.917 20.549,16.271 78.614,-11.395 66.21,-39.925 h 8.279 L 88.498,-7.694 17.993,25.901 Z"
         style="fill:#ffffff;fill-opacity:1;fill-rule:nonzero;stroke:none"
         id="path28" />
    </g>
    <g
       id="g30"
       transform="translate(41.4409,74.6574)">
      <path
         d="m 0,0 3.352,-7.082 23.782,31.857 79.484,-36.764 -19.419,-42.479 h 7.614 l 20.969,45.869 -90.835,42.014 z"
         style="fill:#ffffff;fill-opacity:1;fill-rule:nonzero;stroke:none"
         id="path32" />
    </g>
    <g
       id="g34"
       transform="translate(34.4209,89.4992)">
      <path
         d="M 0,0 2.99,-6.317 33.885,32.945 134.801,-12.88 108.167,-69.312 h 6.919 L 143.168,-9.806 32.007,40.67 Z"
         style="fill:#ffffff;fill-opacity:1;fill-rule:nonzero;stroke:none"
         id="path36" />
    </g>
    <g
       id="g38"
       transform="translate(27.3105,104.5256)">
      <path
         d="M 0,0 2.646,-5.591 40.75,40.913 163.097,-13.95 129.143,-84.336 h 6.203 l 35.281,73.134 -131.487,58.96 z"
         style="fill:#ffffff;fill-opacity:1;fill-rule:nonzero;stroke:none"
         id="path40" />
    </g>
    <g
       id="g42"
       transform="translate(20.1426,119.6779)">
      <path
         d="M 0,0 -0.142,0.301 0,0 2.312,-4.888 47.686,48.74 191.458,-15.146 150.118,-99.488 h 5.48 l 42.528,86.761 -151.812,67.462 z"
         style="fill:#ffffff;fill-opacity:1;fill-rule:nonzero;stroke:none"
         id="path44" />
    </g>
    <g
       id="g46"
       transform="translate(92.335,205.4724)">
      <path
         d="M 0,0 120.455,-54.393 115.05,-48.017 2.409,2.846 Z"
         style="fill:#ffffff;fill-opacity:1;fill-rule:nonzero;stroke:none"
         id="path48" />
    </g>
    <g
       id="g50"
       transform="translate(104.8003,220.1325)">
      <path
         d="M 0,0 79.576,-35.716 74.171,-29.34 2.409,2.846 Z"
         style="fill:#ffffff;fill-opacity:1;fill-rule:nonzero;stroke:none"
         id="path52" />
    </g>
    <g
       id="g54"
       transform="translate(117.1704,234.9948)">
      <path
         d="M 0,0 39.482,-17.723 34.077,-11.347 2.409,2.846 Z"
         style="fill:#ffffff;fill-opacity:1;fill-rule:nonzero;stroke:none"
         id="path56" />
    </g>
    <g
       id="g58"
       transform="translate(78.0591,188.5979)">
      <path
         d="m 0,0 155.342,-70.764 -48.451,-97.644 h 4.854 l 32.238,64.97 17.117,34.819 -0.011,0.012 L 2.916,3.449 Z"
         style="fill:#ffffff;fill-opacity:1;fill-rule:nonzero;stroke:none"
         id="path60" />
    </g>
    <g
       id="g62">
      <g
         id="g64"
         clip-path="url(#clipPath68)">
        <g
           id="g70"
           transform="translate(289.1221,162.57)">
          <path
             d="M 0,0 H -11.471 V -21.056 H 0 c 8.603,0 13.056,3.925 13.056,10.566 C 13.056,-3.849 8.603,0 0,0 M 13.282,-44.526 2.49,-29.055 C 1.811,-29.13 1.132,-29.13 0.453,-29.13 h -11.924 v -15.396 h -9.811 V 8.302 H 0.453 c 13.886,0 22.489,-7.094 22.489,-18.792 0,-8 -4.075,-13.886 -11.245,-16.678 l 12.151,-17.358 z"
             style="fill:#ffffff;fill-opacity:1;fill-rule:nonzero;stroke:none"
             id="path72" />
        </g>
        <g
           id="g74"
           transform="translate(352.2173,138.1936)">
          <path
             d="m 0,0 c 0,7.698 -5.131,12.603 -12,12.603 -6.792,0 -11.923,-4.905 -11.923,-12.603 0,-7.698 5.131,-12.604 11.923,-12.604 6.869,0 12,4.906 12,12.604 m -33.432,0 c 0,12.075 9.056,20.603 21.432,20.603 C 0.528,20.603 9.509,12.075 9.509,0 9.509,-12.074 0.528,-20.678 -12,-20.678 c -12.376,0 -21.432,8.604 -21.432,20.678"
             style="fill:#ffffff;fill-opacity:1;fill-rule:nonzero;stroke:none"
             id="path76" />
        </g>
        <g
           id="g78"
           transform="translate(407.3906,158.3439)">
          <path
             d="m 0,0 -18.867,-43.545 c -3.698,-9.132 -8.829,-11.925 -15.546,-11.925 -4,0 -8.226,1.36 -10.792,3.699 l 3.773,6.943 c 1.811,-1.735 4.377,-2.792 6.944,-2.792 3.32,0 5.282,1.584 7.093,5.585 l 0.679,1.584 L -44.3,0 h 9.812 L -21.81,-29.81 -9.056,0 Z"
             style="fill:#ffffff;fill-opacity:1;fill-rule:nonzero;stroke:none"
             id="path80" />
        </g>
        <g
           id="g82"
           transform="translate(437.5815,130.6467)">
          <path
             d="m 0,0 v 4.68 h -9.736 c -6.414,0 -8.15,-2.415 -8.15,-5.359 0,-3.396 2.868,-5.585 7.698,-5.585 C -5.585,-6.264 -1.585,-4.15 0,0 M 9.433,11.019 V -12.603 H 0.528 v 4.906 c -2.264,-3.472 -6.641,-5.434 -12.679,-5.434 -9.207,0 -15.018,5.057 -15.018,12.075 0,6.716 4.528,11.999 16.754,11.999 H 0 v 0.604 c 0,5.509 -3.321,8.754 -10.038,8.754 -4.528,0 -9.207,-1.509 -12.225,-4 l -3.698,6.868 c 4.301,3.321 10.565,4.981 17.056,4.981 11.621,0 18.338,-5.509 18.338,-17.131"
             style="fill:#ffffff;fill-opacity:1;fill-rule:nonzero;stroke:none"
             id="path84" />
        </g>
        <path
           d="m 457.812,174.041 h 9.434 v -55.997 h -9.434 z"
           style="fill:#ffffff;fill-opacity:1;fill-rule:nonzero;stroke:none"
           id="path86" />
        <g
           id="g88"
           transform="translate(532.376,137.9675)">
          <path
             d="M 0,0 -9.962,23.093 -19.849,0 Z m 3.244,-7.698 h -26.413 l -5.207,-12.225 h -10.112 l 23.771,52.827 h 9.66 L 18.791,-19.923 H 8.528 Z"
             style="fill:#ffffff;fill-opacity:1;fill-rule:nonzero;stroke:none"
             id="path90" />
        </g>
        <g
           id="g92"
           transform="translate(553.6621,138.1936)">
          <path
             d="m 0,0 c 0,12.075 9.057,20.603 21.811,20.603 7.848,0 14.112,-3.245 17.207,-9.358 L 31.772,7.019 C 29.357,10.868 25.735,12.603 21.735,12.603 14.793,12.603 9.51,7.773 9.51,0 c 0,-7.849 5.283,-12.604 12.225,-12.604 4,0 7.622,1.737 10.037,5.586 l 7.246,-4.227 C 35.923,-17.282 29.659,-20.678 21.811,-20.678 9.057,-20.678 0,-12.074 0,0"
             style="fill:#ffffff;fill-opacity:1;fill-rule:nonzero;stroke:none"
             id="path94" />
        </g>
        <g
           id="g96"
           transform="translate(625.1338,130.6467)">
          <path
             d="m 0,0 v 4.68 h -9.735 c -6.414,0 -8.151,-2.415 -8.151,-5.359 0,-3.396 2.868,-5.585 7.698,-5.585 C -5.584,-6.264 -1.584,-4.15 0,0 M 9.434,11.019 V -12.603 H 0.529 v 4.906 c -2.264,-3.472 -6.641,-5.434 -12.679,-5.434 -9.206,0 -15.018,5.057 -15.018,12.075 0,6.716 4.528,11.999 16.754,11.999 H 0 v 0.604 c 0,5.509 -3.319,8.754 -10.037,8.754 -4.528,0 -9.207,-1.509 -12.226,-4 l -3.697,6.868 c 4.301,3.321 10.565,4.981 17.056,4.981 11.621,0 18.338,-5.509 18.338,-17.131"
             style="fill:#ffffff;fill-opacity:1;fill-rule:nonzero;stroke:none"
             id="path98" />
        </g>
        <g
           id="g100"
           transform="translate(676.833,138.1936)">
          <path
             d="m 0,0 c 0,7.698 -5.206,12.603 -11.999,12.603 -6.791,0 -11.999,-4.905 -11.999,-12.603 0,-7.698 5.208,-12.604 11.999,-12.604 C -5.206,-12.604 0,-7.698 0,0 M 9.283,35.848 V -20.149 H 0.227 v 5.207 c -3.169,-3.849 -7.848,-5.736 -13.358,-5.736 -11.697,0 -20.377,8.151 -20.377,20.678 0,12.528 8.68,20.603 20.377,20.603 5.208,0 9.811,-1.736 12.981,-5.434 v 20.679 z"
             style="fill:#ffffff;fill-opacity:1;fill-rule:nonzero;stroke:none"
             id="path102" />
        </g>
        <g
           id="g104"
           transform="translate(704.5352,141.4392)">
          <path
             d="M 0,0 H 22.867 C 22.111,5.811 17.66,9.811 11.472,9.811 5.358,9.811 0.906,5.886 0,0 M 31.696,-6.264 H 0.075 c 1.132,-5.887 6.037,-9.66 13.057,-9.66 4.528,0 8.075,1.433 10.942,4.378 l 5.056,-5.812 c -3.622,-4.302 -9.281,-6.565 -16.225,-6.565 -13.509,0 -22.263,8.678 -22.263,20.677 0,12 8.83,20.603 20.83,20.603 11.772,0 20.376,-8.226 20.376,-20.829 0,-0.754 -0.077,-1.886 -0.152,-2.792"
             style="fill:#ffffff;fill-opacity:1;fill-rule:nonzero;stroke:none"
             id="path106" />
        </g>
        <g
           id="g108"
           transform="translate(812.835,141.1369)">
          <path
             d="m 0,0 v -23.093 h -9.434 v 21.885 c 0,7.17 -3.32,10.642 -9.055,10.642 -6.189,0 -10.49,-4.076 -10.49,-12.075 v -20.452 h -9.434 v 21.885 c 0,7.17 -3.32,10.642 -9.056,10.642 -6.264,0 -10.49,-4.076 -10.49,-12.075 v -20.452 h -9.434 v 40.3 h 8.982 v -5.132 c 3.018,3.622 7.697,5.585 13.207,5.585 5.886,0 10.791,-2.189 13.584,-6.717 3.244,4.151 8.679,6.717 15.093,6.717 C -6.792,17.66 0,12.15 0,0"
             style="fill:#ffffff;fill-opacity:1;fill-rule:nonzero;stroke:none"
             id="path110" />
        </g>
        <g
           id="g112"
           transform="translate(861.8896,158.3439)">
          <path
             d="m 0,0 -18.866,-43.545 c -3.698,-9.132 -8.83,-11.925 -15.547,-11.925 -3.999,0 -8.226,1.36 -10.791,3.699 l 3.772,6.943 c 1.813,-1.735 4.378,-2.792 6.944,-2.792 3.321,0 5.282,1.584 7.094,5.585 l 0.679,1.584 L -44.299,0 h 9.811 L -21.81,-29.81 -9.056,0 Z"
             style="fill:#ffffff;fill-opacity:1;fill-rule:nonzero;stroke:none"
             id="path114" />
        </g>
        <g
           id="g116"
           transform="translate(297.0381,55.0949)">
          <path
             d="m 0,0 c 0,7.697 -5.131,12.603 -12,12.603 -6.791,0 -11.923,-4.906 -11.923,-12.603 0,-7.698 5.132,-12.604 11.923,-12.604 6.869,0 12,4.906 12,12.604 m -33.432,0 c 0,12.075 9.057,20.603 21.432,20.603 C 0.528,20.603 9.509,12.075 9.509,0 9.509,-12.074 0.528,-20.678 -12,-20.678 c -12.375,0 -21.432,8.604 -21.432,20.678"
             style="fill:#ffffff;fill-opacity:1;fill-rule:nonzero;stroke:none"
             id="path118" />
        </g>
        <g
           id="g120"
           transform="translate(326.022,77.3576)">
          <path
             d="M 0,0 V -2.415 H 11.093 V -9.961 H 0.301 v -32.452 h -9.433 v 32.452 h -6.641 v 7.546 h 6.641 v 2.566 c 0,8.453 5.056,13.962 14.414,13.962 3.245,0 6.415,-0.679 8.528,-2.189 L 11.169,4.83 C 9.735,5.812 7.924,6.491 5.961,6.491 2.037,6.491 0,4.302 0,0"
             style="fill:#ffffff;fill-opacity:1;fill-rule:nonzero;stroke:none"
             id="path122" />
        </g>
        <g
           id="g124"
           transform="translate(404.812,43.1711)">
          <path
             d="M 0,0 V -8.227 H -39.62 V 44.602 H -1.056 V 36.375 H -29.81 V 22.641 H -4.301 V 14.565 H -29.81 V 0 Z"
             style="fill:#ffffff;fill-opacity:1;fill-rule:nonzero;stroke:none"
             id="path126" />
        </g>
        <g
           id="g128"
           transform="translate(454.5508,58.0383)">
          <path
             d="m 0,0 v -23.094 h -9.434 v 21.886 c 0,7.17 -3.547,10.642 -9.584,10.642 -6.717,0 -11.245,-4.076 -11.245,-12.151 v -20.377 h -9.433 v 40.3 h 8.981 v -5.207 c 3.093,3.698 7.999,5.66 13.885,5.66 C -7.17,17.659 0,12.15 0,0"
             style="fill:#ffffff;fill-opacity:1;fill-rule:nonzero;stroke:none"
             id="path130" />
        </g>
        <g
           id="g132"
           transform="translate(497.2695,56.3029)">
          <path
             d="m 0,0 c 0,6.791 -5.132,11.395 -12.227,11.395 -7.168,0 -12.3,-4.604 -12.3,-11.395 0,-6.868 5.132,-11.547 12.3,-11.547 C -5.132,-11.547 0,-6.868 0,0 m 9.282,18.941 v -34.186 c 0,-14.641 -7.622,-21.282 -21.734,-21.282 -7.547,0 -15.018,1.963 -19.622,5.735 l 4.226,7.095 c 3.547,-2.944 9.283,-4.83 14.868,-4.83 8.905,0 12.829,4.075 12.829,12.225 v 2.114 c -3.321,-3.623 -8.075,-5.359 -13.509,-5.359 -11.546,0 -20.376,7.849 -20.376,19.547 0,11.696 8.83,19.395 20.376,19.395 5.66,0 10.641,-1.812 13.962,-5.811 v 5.357 z"
             style="fill:#ffffff;fill-opacity:1;fill-rule:nonzero;stroke:none"
             id="path134" />
        </g>
        <path
           d="m 518.934,75.244 h 9.434 v -40.3 h -9.434 z m -1.284,12.302 c 0,3.169 2.566,5.66 6.037,5.66 3.472,0 6.038,-2.34 6.038,-5.433 0,-3.322 -2.491,-5.887 -6.038,-5.887 -3.471,0 -6.037,2.49 -6.037,5.66"
           style="fill:#ffffff;fill-opacity:1;fill-rule:nonzero;stroke:none"
           id="path136" />
        <g
           id="g138"
           transform="translate(580.4404,58.0383)">
          <path
             d="m 0,0 v -23.094 h -9.434 v 21.886 c 0,7.17 -3.546,10.642 -9.585,10.642 -6.715,0 -11.244,-4.076 -11.244,-12.151 v -20.377 h -9.433 v 40.3 h 8.981 v -5.207 c 3.094,3.698 7.999,5.66 13.886,5.66 C -7.17,17.659 0,12.15 0,0"
             style="fill:#ffffff;fill-opacity:1;fill-rule:nonzero;stroke:none"
             id="path140" />
        </g>
        <g
           id="g142"
           transform="translate(598.4814,58.34)">
          <path
             d="M 0,0 H 22.866 C 22.111,5.811 17.659,9.811 11.472,9.811 5.358,9.811 0.905,5.886 0,0 M 31.695,-6.264 H 0.075 c 1.132,-5.886 6.037,-9.66 13.056,-9.66 4.528,0 8.075,1.434 10.943,4.377 l 5.056,-5.81 c -3.622,-4.303 -9.281,-6.566 -16.225,-6.566 -13.509,0 -22.263,8.679 -22.263,20.678 0,12 8.83,20.602 20.83,20.602 11.771,0 20.376,-8.225 20.376,-20.828 0,-0.756 -0.077,-1.887 -0.153,-2.793"
             style="fill:#ffffff;fill-opacity:1;fill-rule:nonzero;stroke:none"
             id="path144" />
        </g>
        <g
           id="g146"
           transform="translate(645.4258,58.34)">
          <path
             d="M 0,0 H 22.867 C 22.112,5.811 17.66,9.811 11.472,9.811 5.359,9.811 0.906,5.886 0,0 M 31.696,-6.264 H 0.075 c 1.133,-5.886 6.038,-9.66 13.057,-9.66 4.528,0 8.075,1.434 10.942,4.377 l 5.057,-5.81 c -3.623,-4.303 -9.282,-6.566 -16.226,-6.566 -13.508,0 -22.263,8.679 -22.263,20.678 0,12 8.831,20.602 20.83,20.602 11.772,0 20.376,-8.225 20.376,-20.828 0,-0.756 -0.077,-1.887 -0.152,-2.793"
             style="fill:#ffffff;fill-opacity:1;fill-rule:nonzero;stroke:none"
             id="path148" />
        </g>
        <g
           id="g150"
           transform="translate(709.6523,75.6975)">
          <path
             d="m 0,0 v -8.98 c -0.829,0.15 -1.509,0.226 -2.188,0.226 -7.168,0 -11.697,-4.226 -11.697,-12.452 v -19.547 h -9.433 v 40.3 h 8.98 V -6.339 C -11.621,-2.113 -6.716,0 0,0"
             style="fill:#ffffff;fill-opacity:1;fill-rule:nonzero;stroke:none"
             id="path152" />
        </g>
        <path
           d="m 718.033,75.244 h 9.434 v -40.3 h -9.434 z m -1.283,12.302 c 0,3.169 2.565,5.66 6.037,5.66 3.472,0 6.037,-2.34 6.037,-5.433 0,-3.322 -2.49,-5.887 -6.037,-5.887 -3.472,0 -6.037,2.49 -6.037,5.66"
           style="fill:#ffffff;fill-opacity:1;fill-rule:nonzero;stroke:none"
           id="path154" />
        <g
           id="g156"
           transform="translate(779.541,58.0383)">
          <path
             d="m 0,0 v -23.094 h -9.434 v 21.886 c 0,7.17 -3.546,10.642 -9.585,10.642 -6.715,0 -11.244,-4.076 -11.244,-12.151 v -20.377 h -9.433 v 40.3 h 8.981 v -5.207 c 3.094,3.698 7.999,5.66 13.886,5.66 C -7.17,17.659 0,12.15 0,0"
             style="fill:#ffffff;fill-opacity:1;fill-rule:nonzero;stroke:none"
             id="path158" />
        </g>
        <g
           id="g160"
           transform="translate(823.0234,56.3029)">
          <path
             d="m 0,0 c 0,6.791 -5.133,11.395 -12.227,11.395 -7.169,0 -12.301,-4.604 -12.301,-11.395 0,-6.868 5.132,-11.547 12.301,-11.547 C -5.133,-11.547 0,-6.868 0,0 m 9.281,18.941 v -34.186 c 0,-14.641 -7.622,-21.282 -21.734,-21.282 -7.547,0 -15.018,1.963 -19.621,5.735 l 4.226,7.095 c 3.546,-2.944 9.282,-4.83 14.867,-4.83 8.905,0 12.829,4.075 12.829,12.225 v 2.114 c -3.32,-3.623 -8.075,-5.359 -13.508,-5.359 -11.547,0 -20.377,7.849 -20.377,19.547 0,11.696 8.83,19.395 20.377,19.395 5.66,0 10.64,-1.812 13.962,-5.811 v 5.357 z"
             style="fill:#ffffff;fill-opacity:1;fill-rule:nonzero;stroke:none"
             id="path162" />
        </g>
      </g>
    </g>
  </g>
</svg>
