<svg width="124" height="86" viewBox="0 0 124 86" fill="none" xmlns="http://www.w3.org/2000/svg">
<path d="M110.3 34.6335C111.618 42.1439 91.0624 51.9795 64.3837 56.6014C37.7082 61.2232 15.0151 58.878 13.6997 51.3644C12.3853 43.8529 32.9458 34.0205 59.6213 29.3997C86.2979 24.7757 108.987 27.121 110.3 34.6335Z" fill="white" fill-opacity="0.4"/>
<path d="M85.1947 45.7841L85.0576 37.9746H87.5334V47.8176H83.9738L81.5034 39.7396H81.4503L81.5873 47.8176H79.1275V37.9746H82.8411L85.1395 45.7841H85.1947Z" fill="white" fill-opacity="0.4"/>
<path d="M40.1894 38.8962L38.8198 47.9212H36.1198L37.974 37.9746H42.4219L44.2675 47.9212H41.5782L40.2458 38.8962H40.1894Z" fill="white" fill-opacity="0.4"/>
<path d="M50.5565 47.9212L48.884 38.9787H48.8298L48.7671 47.9212H46.2627L46.4837 37.9746H50.5639L51.7986 45.578H51.8517L53.0875 37.9746H57.1656L57.3823 47.9212H54.8832L54.8173 38.9787H54.7653L53.0939 47.9212H50.5565Z" fill="white" fill-opacity="0.4"/>
<path d="M31.9089 45.1147C32.0066 45.3557 31.9769 45.6653 31.9312 45.8524C31.8472 46.1832 31.622 46.5204 30.9568 46.5204C30.3299 46.5204 29.9495 46.1632 29.9495 45.6167V44.6539H27.2676L27.2655 45.4244C27.2655 47.6418 29.0208 48.3108 30.9015 48.3108C32.71 48.3108 34.1997 47.6957 34.4367 46.0384C34.5578 45.1792 34.4675 44.6169 34.4261 44.4045C34.0042 42.3223 30.2088 41.7009 29.9261 40.5362C29.8783 40.3364 29.8921 40.125 29.9155 40.0119C29.9846 39.6949 30.2034 39.345 30.8293 39.345C31.4137 39.345 31.759 39.7044 31.759 40.2476C31.759 40.4305 31.759 40.8617 31.759 40.8617H34.2529V40.1631C34.2529 37.9964 32.2978 37.6582 30.8814 37.6582C29.1026 37.6582 27.6491 38.2427 27.3834 39.8619C27.3112 40.3089 27.3005 40.7074 27.4057 41.2062C27.8424 43.2387 31.3946 43.8274 31.9089 45.1147Z" fill="white" fill-opacity="0.4"/>
<path d="M64.4239 45.0945C64.5227 45.3334 64.4909 45.6346 64.4462 45.8217C64.3644 46.1514 64.1413 46.4833 63.4804 46.4833C62.862 46.4833 62.4848 46.1261 62.4848 45.5923L62.4826 44.6379H59.8284L59.8252 45.3978C59.8252 47.593 61.5646 48.2557 63.4262 48.2557C65.2155 48.2557 66.6914 47.6491 66.9241 46.0066C67.0452 45.1537 66.9592 44.5988 66.9156 44.3906C66.4959 42.3275 62.7387 41.7124 62.4592 40.5593C62.4114 40.3606 62.4252 40.1513 62.4497 40.0446C62.5209 39.7254 62.7355 39.384 63.355 39.384C63.9341 39.384 64.272 39.7349 64.272 40.2739C64.272 40.4547 64.272 40.8817 64.272 40.8817H66.7467V40.1904C66.7467 38.047 64.8075 37.7109 63.4049 37.7109C61.6464 37.7109 60.2045 38.288 59.9442 39.8956C59.8719 40.3363 59.8645 40.7274 59.9675 41.2241C60.3979 43.2354 63.915 43.8199 64.4239 45.0945Z" fill="white" fill-opacity="0.4"/>
<path d="M72.8241 46.4324C73.5179 46.4324 73.7347 45.9547 73.7825 45.7105C73.8027 45.6027 73.808 45.459 73.8059 45.33V37.9697H76.3348V45.1049C76.3401 45.2878 76.322 45.664 76.3135 45.7581C76.1361 47.6151 74.6602 48.2175 72.823 48.2175C70.9837 48.2175 69.5067 47.6151 69.3314 45.7581C69.3229 45.664 69.3049 45.2878 69.3102 45.1049V37.9697H71.8369V45.33C71.8369 45.459 71.8412 45.6038 71.8603 45.7105C71.9145 45.9547 72.1249 46.4324 72.8241 46.4324Z" fill="white" fill-opacity="0.4"/>
<path d="M93.6856 46.3277C94.4103 46.3277 94.6632 45.8721 94.71 45.6069C94.728 45.4927 94.7333 45.3543 94.7323 45.2285V43.7847H93.7058V42.3325H97.2516V45.0023C97.2495 45.1883 97.2452 45.3257 97.2155 45.6576C97.0486 47.467 95.4707 48.1128 93.6984 48.1128C91.9229 48.1128 90.3471 47.467 90.1781 45.6576C90.1495 45.3257 90.1452 45.1883 90.142 45.0023L90.1441 40.8138C90.1441 40.6373 90.1665 40.3244 90.1856 40.1585C90.4077 38.2994 91.9229 37.7012 93.6984 37.7012C95.4718 37.7012 97.0242 38.2962 97.208 40.1585C97.241 40.4756 97.2303 40.8138 97.2303 40.8138V41.1456H94.7089V40.5886C94.711 40.5897 94.7057 40.3519 94.676 40.2103C94.6334 39.9904 94.4411 39.4852 93.6793 39.4852C92.9504 39.4852 92.7368 39.963 92.6837 40.2103C92.6528 40.3413 92.6412 40.5189 92.6412 40.6795V45.2285C92.639 45.3543 92.6465 45.4927 92.6667 45.6069C92.7102 45.8732 92.962 46.3277 93.6856 46.3277Z" fill="white" fill-opacity="0.4"/>
</svg>
