<svg width="213" height="38" viewBox="0 0 213 38" fill="none" xmlns="http://www.w3.org/2000/svg">
<g clip-path="url(#clip0_86_350)">
<path fill-rule="evenodd" clip-rule="evenodd" d="M13.3024 0.153109C13.8967 0.153109 14.6914 0.357246 15.4861 1.17617C16.2796 1.78978 16.2796 3.017 16.0804 4.04007C15.8823 4.85782 15.683 5.47143 14.6914 6.08504C13.6986 6.69865 12.7058 6.69864 12.7058 6.69864V10.5844L14.4921 12.2211L12.7058 13.6525V19.1761C12.7058 19.1761 14.4921 17.9489 15.683 15.4933L15.8823 15.0838C15.8823 15.9016 15.8823 17.13 15.0876 18.9708C14.6902 20.198 13.6986 21.4264 12.3085 22.2442C10.1248 23.4702 8.53657 23.4702 6.75025 23.2661C4.56658 22.6524 2.58101 21.4264 1.39012 19.3803C0.397341 17.9489 0 16.1069 0 14.2661C0.19924 10.5833 2.77911 7.51522 5.75746 6.28801C6.1548 6.08386 6.3529 6.08387 6.94835 6.08387C6.75025 6.08387 6.3529 6.28801 5.95556 6.69747C4.96278 7.30991 4.16924 8.5383 3.77189 9.56137L9.72746 6.90162V15.4933L4.96278 17.9489C5.55822 18.7667 7.14645 19.995 8.53543 19.995C11.1164 20.4033 12.5054 19.1773 12.5054 19.1773V13.6536L10.5199 12.2223L12.5054 10.5856V6.69982C11.5003 6.47848 10.5067 6.20516 9.52822 5.88089C8.33733 5.67675 4.76354 4.65368 4.3662 4.65368C3.77076 4.44953 2.97607 4.44953 2.57987 4.85899C2.18367 5.26846 1.98557 5.88207 2.18253 6.49568C2.18253 6.90514 2.38177 7.10928 2.57987 7.31343C2.57987 7.31343 2.38177 7.31343 1.98557 7.10929C1.39012 6.69982 0.793544 5.88206 0.793544 4.85899C0.793544 3.63178 1.19089 2.4034 2.38291 1.58564C3.17645 0.972035 4.16924 0.562565 5.36012 0.767883C7.14645 0.972028 9.52936 1.9951 11.713 2.60871C12.5066 2.81285 13.102 2.81286 13.6986 2.40339C13.8967 2.19925 14.4921 1.79095 14.0959 1.17617C13.5005 0.35842 12.7058 0.358427 11.9123 0.153109C12.5077 -0.0510362 12.7069 -0.0510362 13.3024 0.153109V0.153109ZM6.15594 17.1323V8.74479L3.77417 9.972C3.77417 9.972 3.17873 11.4034 3.17873 13.4495C3.37683 15.0862 4.17151 16.927 4.76696 17.7459L6.15594 17.1323V17.1323ZM36.3288 8.3365C36.3288 8.3365 34.3433 9.56371 33.1524 10.3826L30.3733 11.8152V19.7921L29.1824 20.6122L29.3805 20.8163L30.3733 19.9986L33.7478 23.0666L39.7034 18.3619L39.5041 18.1566L36.3277 20.8163L33.5486 18.1566V17.3388L38.9087 13.2477L36.3288 8.3365V8.3365ZM36.3288 14.882L33.5497 16.9282V10.1773L36.3288 14.882ZM21.0443 26.1335C21.8378 26.1335 23.0287 26.3376 24.815 25.5199C26.6014 24.498 27.396 22.656 27.396 20.611L27.5941 17.7459V11.4045L28.5869 10.5868V10.3826L27.396 11.2004L24.815 8.3365L21.4405 11.2004V1.17735L17.2712 4.4507C17.4693 4.65485 18.0659 4.65485 18.0659 5.67792V19.7921L16.2796 21.0193L16.4777 21.2234L17.2724 20.6122L19.6542 22.8625L23.4261 19.7921L23.2268 19.5879L22.4333 20.4057L21.4405 19.3838V11.6099L22.4333 10.5868L24.2196 12.6329V19.3838C24.2196 21.2234 24.2196 23.4737 23.2268 24.498C22.2352 25.7228 22.0359 25.7228 21.0443 26.1335V26.1335ZM47.0491 25.3157C45.4608 25.1116 44.8654 24.2938 44.8654 23.4737C44.8654 23.0654 45.4608 22.0412 46.2555 22.0412C47.2483 21.837 48.0418 22.2477 48.8365 23.2696L52.4092 19.1796H52.2111L51.2183 20.2015C50.4248 19.1796 49.0358 18.3607 47.6456 18.1554V6.08621L56.5784 23.0654C56.5784 23.0654 56.7765 23.2696 57.1739 23.2696C57.372 23.2696 57.372 23.0654 57.372 23.0654V6.08621C58.1666 5.88207 59.1583 5.4726 59.7537 5.06314C61.5401 3.22232 60.7465 1.17735 60.5484 0.972032C60.5484 1.79096 59.7537 2.60871 58.7621 2.81286C57.372 2.81286 56.3803 1.58564 56.3803 1.58564L53.0058 5.67675L53.205 5.88089L54.1978 4.65368C55.3887 5.8809 56.1834 5.8809 57.175 6.08621V15.9051L50.4259 3.42647C49.8305 2.4034 49.0369 1.38149 47.4487 1.38149C45.8605 1.38149 44.6696 2.81286 44.4715 4.24422C44.2734 5.67675 44.4715 6.08504 44.4715 6.08504C44.4715 6.08504 44.6696 4.44836 45.6624 4.44836C46.6551 4.44836 47.0525 5.26611 47.4487 5.87972V9.56254C46.4559 9.56254 44.0741 9.56254 44.0741 12.2223C44.0741 13.04 44.6696 14.0631 45.0669 14.4726C45.6624 14.882 46.2578 14.882 46.2578 14.882C46.2578 14.882 45.4631 14.4726 45.6624 13.6548C45.8616 12.8371 47.4487 12.8371 47.4487 13.0412V18.1554C46.6551 18.1554 44.4715 18.1554 43.2794 20.2015C42.684 21.4299 42.684 22.8625 43.4775 23.8844C44.0707 24.7009 45.0635 25.7228 47.0491 25.3157V25.3157ZM66.1055 8.3365C66.1055 8.3365 64.3192 9.56371 62.929 10.3826L60.1499 11.8152V19.7921L58.9591 20.6122L59.1572 20.8163L60.348 19.9986L63.5245 23.0666L69.4789 18.3619L69.2808 18.1566L66.1044 20.8163L63.5233 18.1566V17.3388L68.6842 13.2477L66.1055 8.3365V8.3365ZM66.1055 14.882L63.5245 16.9282V10.1773L66.1055 14.882ZM74.2447 23.0654L71.2664 20.611L70.0755 21.6329L69.8763 21.4288L71.2664 20.4045V13.6548C71.2664 10.7909 68.6854 11.6099 68.8846 8.54064C68.8846 7.31342 70.0755 6.29036 70.869 5.88089C71.4645 5.67675 72.2592 5.67675 72.2592 5.67675C72.2592 5.67675 71.0683 6.29036 71.2664 7.51758C71.6637 9.15425 74.4428 9.15425 74.6409 11.4034V19.1773L76.6265 20.814L77.2219 20.4033V12.017L76.0311 10.9939L78.8102 8.33415L81.3912 10.7886L80.3984 11.8117V19.1761L82.9794 21.2199L83.3767 21.0158V12.0158L82.1859 10.9927L84.965 8.33298L87.7429 10.5833L88.7357 9.56019L88.9338 9.76434L86.5521 12.0146V19.1749L80.3984 23.0607L77.2219 20.6063L74.2447 23.0654V23.0654ZM199.306 8.3365C199.306 8.3365 197.32 9.56371 196.131 10.3826L193.351 11.8152V19.7921L192.159 20.6122L192.36 20.8163L193.351 19.9986L196.725 23.0666L202.682 18.3619L202.481 18.1566L199.306 20.8163L196.527 18.1566V17.3388L201.888 13.2477L199.306 8.3365V8.3365ZM199.306 14.882L196.527 16.9282V10.1773L199.306 14.882ZM171.912 11.814H172.11L173.102 10.9951L174.69 12.8359V19.3826L173.895 19.9974L176.478 23.0654L179.056 20.4045L178.065 19.1785V11.4045L178.661 10.7909L180.446 13.0412V19.5868L179.851 20.2004L182.234 22.8613L184.814 20.4045L183.822 19.3826V11.4045L184.418 10.7909L186.402 13.0412V19.3826L185.808 19.9974L188.388 23.0654L191.96 19.5868L191.763 19.3826L190.969 20.2004L189.58 18.769V11.4045L190.769 10.3815V10.1773L189.379 11.1992L186.997 8.54064L183.624 11.1992L181.24 8.54064L177.868 11.1992L175.486 8.54064L171.912 11.814V11.814Z" fill="white" fill-opacity="0.4"/>
<path fill-rule="evenodd" clip-rule="evenodd" d="M164.766 11.6017L165.757 10.7827L167.148 12.6235V19.9892L166.155 21.0111L166.353 21.2141L167.345 20.1922L169.729 23.0572L173.102 19.9892L172.904 19.7827L171.912 20.6028L170.522 18.9649V11.6017L171.712 10.5786V10.3733L170.522 11.3963L168.139 8.53243L164.766 11.6017ZM165.757 5.25908L168.139 3.00879L170.323 5.25908L167.743 7.71468L165.757 5.25908V5.25908Z" fill="white" fill-opacity="0.4"/>
<path fill-rule="evenodd" clip-rule="evenodd" d="M162.185 0.153109C162.781 0.153109 163.774 0.357246 164.567 1.17617C165.163 1.78978 165.363 3.017 165.163 4.04007C164.965 4.85782 164.567 5.47143 163.773 6.08504C162.781 6.69865 161.789 6.69864 161.789 6.69864V10.5844L163.574 12.2211L161.789 13.6525V19.1761C161.789 19.1761 163.574 17.9489 164.766 15.4933L164.965 15.0838C164.965 15.9016 164.965 17.13 164.171 18.9708C163.773 20.198 162.583 21.4264 161.392 22.2442C159.208 23.4702 157.423 23.4702 155.634 23.2661C153.651 22.6524 151.666 21.4264 150.474 19.3803C149.482 17.9489 149.083 16.1069 149.083 14.2661C149.083 10.5833 151.863 7.51522 154.841 6.28801C155.239 6.08386 155.436 6.08387 156.033 6.08387C155.634 6.08387 155.438 6.28801 155.039 6.69747C154.047 7.30991 153.254 8.5383 152.855 9.56137L158.812 6.90162V15.4933L154.046 17.9489C154.642 18.7667 156.23 19.995 157.62 19.995C160.002 20.4033 161.391 19.1773 161.391 19.1773V13.6536L159.606 12.2223L161.391 10.5856V6.69982C160.399 6.4945 159.207 6.08621 158.414 5.88089C157.422 5.67675 153.848 4.65368 153.253 4.65368C152.854 4.44953 152.061 4.44953 151.664 4.85899C151.266 5.26846 151.069 5.88207 151.069 6.49568C151.267 6.90514 151.468 7.10928 151.664 7.31343C151.664 7.31343 151.466 7.31343 151.069 7.10929C150.474 6.69982 149.877 5.88206 149.877 4.85899C149.679 3.63178 150.275 2.4034 151.267 1.58564C152.261 0.972035 153.253 0.562565 154.445 0.767883C156.23 0.972028 158.612 1.9951 160.597 2.60871C161.589 2.81285 162.185 2.81286 162.781 2.40339C162.979 2.19925 163.376 1.79095 162.979 1.17617C162.583 0.35842 161.789 0.358427 160.996 0.153109C161.59 -0.0510362 161.79 -0.0510362 162.185 0.153109V0.153109ZM155.239 17.1323V8.74479L152.855 9.972C152.855 9.972 152.062 11.4034 152.262 13.4495C152.262 15.0862 153.254 16.927 153.85 17.7459L155.239 17.1323V17.1323ZM205.661 24.0873C205.262 24.2938 203.675 23.8832 203.277 22.0412C202.88 20.2015 204.073 19.1796 205.859 17.1323L203.675 15.2915V11.4045C203.675 11.4045 205.263 10.7909 206.454 9.97317L208.836 8.3365C208.836 8.3365 209.828 9.56372 210.822 9.35957C212.41 9.15425 212.41 7.92703 212.212 7.72289C212.608 8.13235 213.203 9.56372 210.424 13.0412L212.808 14.882V19.7909C212.808 19.7909 210.029 21.2234 207.645 23.0654C207.645 23.0654 206.257 21.2234 205.065 22.0412C204.073 22.6548 204.469 23.679 205.661 24.0873V24.0873ZM203.675 20.4045C203.675 20.4045 204.867 18.3595 207.051 18.7678C209.034 19.1785 209.631 21.2223 209.631 21.2223V16.3146L208.241 15.0874C206.85 16.7229 204.073 18.9731 203.675 20.4045V20.4045ZM206.85 9.97317V13.8601L208.043 15.0874C208.043 15.0874 210.822 12.8371 211.813 10.5868C211.813 10.5868 210.624 12.4276 208.836 11.814C207.446 11.4045 206.85 9.97317 206.85 9.97317V9.97317ZM120.103 11.6099L121.094 10.7909H121.292L120.301 11.814V19.5868C120.301 19.5868 118.315 20.611 117.125 21.4288L114.346 23.0654L110.772 19.9974L109.979 20.8151H109.781L110.772 19.7909V11.4045C110.772 11.4045 112.361 10.7909 113.75 9.97317C114.942 9.15425 116.33 8.3365 116.33 8.3365L120.103 11.6099V11.6099ZM114.148 18.5649L116.925 21.2234V12.8371L114.148 10.1773V18.5649V18.5649ZM127.05 10.7909L129.233 8.54064C129.233 8.54064 129.432 8.74479 129.829 8.95011C130.027 9.15426 130.622 9.35957 131.219 9.15425C131.615 8.95011 131.615 8.74478 132.013 8.54064C132.013 10.3815 131.219 11.6099 130.225 12.0181C129.632 12.2223 128.44 12.6318 127.05 10.9951V19.3826L128.638 20.611L129.632 19.7909H129.83L126.256 23.0654L123.477 20.4045L122.486 21.4288L122.287 21.2223L123.678 19.7897V12.6306L122.684 10.9939L121.692 11.8128H121.494L125.068 8.53947L127.05 10.7909V10.7909ZM136.38 14.4738L140.349 8.3365C140.349 8.3365 140.944 8.95011 141.938 9.15425C143.128 9.56371 144.32 8.3365 144.32 8.3365C144.122 9.97318 143.328 11.814 141.541 12.0193C140.151 12.2235 138.762 10.9962 138.762 10.9962L138.564 11.6099L144.123 20.4057L145.313 19.3838L145.511 19.5879L141.542 23.0666L136.38 14.4738V14.4738Z" fill="white" fill-opacity="0.4"/>
<path fill-rule="evenodd" clip-rule="evenodd" d="M132.999 6.28805C132.999 4.85669 132.404 4.03894 131.609 4.03894L136.177 0.969727V19.1773L137.367 20.4034L138.16 19.5856L138.361 19.7898L134.787 23.0643L132.403 20.6099L131.411 21.6318L131.213 21.4276L132.998 19.7898V6.28805H132.999V6.28805ZM95.68 5.87859C95.68 4.65137 95.0845 4.03776 94.2898 4.03776C93.0989 3.83244 92.9008 5.67445 92.9008 5.67445C92.9008 5.67445 92.7027 4.24191 93.6944 3.22001C94.2898 2.6064 95.4807 1.58334 97.0689 1.9928C98.8553 2.40226 99.4507 3.83362 99.4507 5.06083V22.0389C99.4507 22.0389 100.046 22.2454 100.443 22.2454C101.039 22.4495 101.436 22.4495 101.436 22.4495V1.99163H101.634V4.85551L105.208 1.78748L107.987 4.24191L109.179 3.21884H109.377L107.987 4.44605V20.1969C107.987 21.2188 107.789 22.243 106.796 22.8578C104.811 24.2903 102.231 22.6513 99.8481 22.4472C98.2598 22.0365 95.68 21.8336 94.8864 23.4691C94.6883 23.8797 94.6883 24.6975 95.4818 25.3111C97.0701 26.333 103.819 23.4691 106.201 24.6975C108.386 25.7194 108.386 27.1519 107.987 28.3803C107.392 30.4264 104.811 30.8347 104.811 30.8347C104.811 30.8347 106.2 30.0169 105.804 28.7909C105.606 28.1773 105.208 27.9708 103.818 28.1773C100.841 28.5856 97.4663 30.017 95.0845 28.9951C93.8936 28.3814 92.9008 26.9489 93.0989 25.3122C93.0989 23.062 95.68 22.2442 95.68 22.2442V14.0608C95.4819 13.8567 94.2898 13.8567 93.8936 14.4703C93.4963 15.4933 94.4891 15.9016 94.4891 15.9016C94.4891 15.9016 93.6944 15.9016 92.9008 15.0839C92.7027 14.6744 91.9081 13.4472 92.9008 12.0158C93.4963 10.9928 94.4891 10.7886 95.68 10.7886V5.87859V5.87859ZM101.636 22.6525C101.636 22.6525 102.826 22.859 103.422 22.2442C104.415 21.4264 104.215 20.6075 104.215 20.6075V14.265C104.215 14.265 103.818 13.446 103.024 13.446C102.231 13.446 101.634 14.265 101.634 14.265V22.6525H101.636ZM104.217 5.87859L102.628 4.44722L101.636 5.06083V10.9939C101.636 10.9939 102.231 11.6075 103.026 11.6075C103.82 11.6075 104.217 10.9939 104.217 10.9939V5.87859V5.87859ZM104.217 11.4022C104.217 11.4022 103.819 11.8117 103.026 11.8117C102.232 11.8117 101.636 11.4022 101.636 11.4022V13.8578C101.636 13.8578 102.231 13.2442 103.026 13.2442C103.82 13.2442 104.217 13.8578 104.217 13.8578V11.4022ZM129.229 28.7921C129.229 27.3595 129.229 27.3596 128.633 27.1542H128.435V26.9501H133.597C133.597 27.1542 133.795 27.972 133.795 28.3826C133.795 28.5868 133.597 28.5868 133.399 28.5868C133.201 27.9732 133.201 27.5649 132.605 27.3607H130.62C130.221 27.3607 130.221 27.3607 130.221 27.769V30.2234C130.221 30.4299 130.221 30.4299 130.62 30.4299H132.405C132.405 30.4299 132.605 30.2234 132.605 30.0193V29.611C132.803 29.4045 133.002 29.4045 133.002 29.611V31.8613C133.002 32.0654 132.803 32.0654 132.605 31.8613V31.4507C132.605 31.2465 132.405 31.04 132.207 31.04C132.009 31.04 131.811 30.8359 131.413 30.8359H130.62C130.221 30.8359 130.221 31.04 130.221 31.2465V32.8832C130.221 33.7009 130.221 34.1116 130.422 34.3157C130.62 34.3157 130.818 34.5199 131.812 34.5199C132.803 34.5199 133.202 34.5199 133.4 34.3157C133.598 34.1116 133.796 33.7021 134.194 33.0873C134.194 33.0873 134.392 33.0873 134.392 33.2915C134.392 33.7021 134.194 34.5199 133.995 34.9293H128.238V34.5187H128.634C129.23 34.5187 129.23 34.3146 129.23 33.0862V28.7921H129.229V28.7921ZM135.581 30.8359C135.383 30.6317 135.183 30.4276 134.788 30.4276H134.588V30.017H136.771V30.4276H136.573C136.177 30.4276 136.177 30.6317 136.375 30.8359L136.97 31.6536C136.97 31.8601 137.169 31.8601 137.169 31.8601C137.169 31.8601 137.567 31.2465 137.764 30.8359C137.962 30.6317 137.962 30.4276 137.764 30.4276H137.566V30.017H139.351V30.4276H139.153C138.955 30.4276 138.754 30.4276 138.558 30.6317C138.361 30.8359 137.962 31.4495 137.566 32.0643C137.365 32.2684 137.365 32.2684 137.566 32.4726L138.558 34.1104C138.756 34.5187 138.956 34.5187 139.351 34.5187H139.549V34.9293H137.167V34.5187H137.566C137.962 34.5187 137.962 34.5187 137.764 34.3145L137.169 33.2903C136.97 33.0862 136.97 33.0862 136.97 32.882C136.77 33.0862 136.77 33.0862 136.77 33.2903L136.177 34.1104C135.977 34.5187 135.977 34.5187 136.177 34.5187H136.375C136.573 34.7228 136.573 34.9293 136.375 34.9293H134.788C134.588 34.9293 134.588 34.7228 134.588 34.5187H134.986C135.184 34.5187 135.384 34.5187 135.581 34.1104C135.78 33.9039 136.375 33.0862 136.573 32.882C136.573 32.6779 136.771 32.6779 136.573 32.4714L135.581 30.8359V30.8359ZM141.339 31.6536C141.339 31.2453 141.339 31.04 141.537 30.8359C141.735 30.6317 141.935 30.4276 142.529 30.4276C143.523 30.4276 144.118 31.4495 144.118 32.4714C144.118 33.6998 143.523 34.7217 142.529 34.7217C142.331 34.7217 141.935 34.5175 141.735 34.3134C141.537 34.1092 141.339 34.1092 141.339 33.6998V31.6536V31.6536ZM140.544 36.5648C140.544 37.3826 140.544 37.5867 140.146 37.5867L139.75 37.7909C139.75 37.7909 139.75 37.9974 139.948 37.9974H142.329V37.7909L141.734 37.5867C141.338 37.5867 141.338 37.3826 141.338 36.5648V35.3364C141.338 35.1323 141.536 34.9282 141.536 34.9282C141.734 34.9282 141.934 35.1323 142.131 35.1323C143.916 35.1323 145.109 33.9039 145.109 32.0643C145.109 30.8359 144.315 30.0181 143.123 30.0181C142.329 30.0181 141.535 30.4288 141.535 30.4288H141.337V29.8152C140.938 30.0193 140.343 30.2234 140.145 30.4288V30.6329C140.543 30.837 140.543 30.837 140.543 31.4507V36.5648H140.544V36.5648ZM146.895 31.4495H146.697C146.697 31.0388 147.292 30.2211 148.087 30.2211C148.682 30.2211 148.88 30.6317 148.88 31.0388V31.2453C148.682 31.4495 148.482 31.4495 147.688 31.4495H146.895V31.4495ZM149.079 31.8601C149.477 31.8601 149.674 31.8601 149.674 31.6536C149.872 31.6536 149.872 31.6536 149.872 31.4495C149.872 30.6317 149.079 30.017 148.087 30.017C146.697 30.017 145.903 31.2453 145.903 32.6779C145.903 33.2891 145.903 33.6998 146.302 34.3145C146.698 34.7228 147.293 35.1323 148.087 35.1323C148.682 35.1323 149.477 34.7217 149.872 33.9039L149.674 33.6998C149.278 34.3134 148.88 34.3134 148.482 34.3134C147.292 34.3134 146.697 33.2891 146.697 32.0631C146.697 31.8589 146.697 31.859 146.895 31.859H149.079V31.8601V31.8601ZM154.241 30.2211C154.441 30.2211 154.441 30.4276 154.441 30.6317C154.441 30.8359 154.241 31.04 154.241 31.04H154.042C153.844 30.6317 153.249 30.4288 152.85 30.4288C152.057 30.4288 151.262 31.04 151.262 32.2684C151.262 33.2903 151.858 34.3145 153.05 34.3145C153.843 34.3145 154.239 34.1104 154.44 33.7009C154.44 33.7009 154.638 33.7009 154.638 33.9051C154.239 34.7228 153.446 35.1335 152.652 35.1335C152.057 35.1335 151.463 34.9293 151.064 34.5199C150.666 34.1116 150.469 33.498 150.469 32.6802C150.469 31.2477 151.262 30.0193 153.248 30.0193C153.446 30.017 154.042 30.017 154.241 30.2211ZM156.822 30.6317C156.623 30.6317 156.623 30.6317 156.623 30.8359V33.0862C156.623 33.9039 156.623 34.5187 157.417 34.5187H157.615C157.813 34.5187 158.014 34.3145 158.014 34.3145C158.014 34.3145 158.212 34.5187 158.014 34.5187C157.813 34.7228 157.418 35.1323 156.822 35.1323C155.83 35.1323 155.63 34.5187 155.63 33.6998V31.0388C155.63 30.6306 155.63 30.6306 155.431 30.6306H155.033V30.4264C155.431 30.2199 155.628 30.0158 155.829 30.0158C156.027 29.8116 156.225 29.6075 156.225 29.198C156.423 29.198 156.423 29.198 156.623 29.4022V29.8128C156.623 30.017 156.623 30.017 156.822 30.017H158.014C158.212 30.2211 158.212 30.6306 158.014 30.6306H156.822V30.6317V30.6317ZM163.174 30.6317C162.974 30.6317 162.974 30.6317 162.974 30.8359V33.0862C162.974 33.9039 162.974 34.5187 163.768 34.5187H164.166L164.364 34.3145C164.562 34.3145 164.562 34.5187 164.562 34.5187C164.364 34.7228 163.969 35.1323 163.373 35.1323C162.381 35.1323 162.181 34.5187 162.181 33.6998V31.0388C162.181 30.6306 162.181 30.6306 161.982 30.6306H161.584C161.584 30.6306 161.386 30.4264 161.584 30.4264C161.784 30.2199 162.179 30.0158 162.179 30.0158C162.38 29.8116 162.578 29.6075 162.775 29.198C162.775 29.198 162.973 29.198 162.973 29.4022V29.8128C162.973 30.017 162.973 30.017 163.173 30.017H164.561V30.6306H163.174V30.6317V30.6317ZM165.754 27.9708C165.754 27.3595 165.754 27.3596 165.358 27.1531L165.158 26.9489V26.7448C165.556 26.7448 165.951 26.5406 166.548 26.3341V30.6317C166.946 30.2211 167.542 30.0181 168.136 30.0181C169.328 30.0181 169.725 30.6317 169.725 31.4507V33.4968C169.725 34.3146 169.725 34.5187 170.122 34.5187H170.32C170.52 34.7228 170.52 34.9293 170.32 34.9293H168.136V34.5187H168.336C168.733 34.5187 168.733 34.3146 168.733 33.4968V31.8601C168.733 31.04 168.535 30.4276 167.741 30.4276C167.343 30.4276 166.947 30.6317 166.747 30.8359C166.549 31.04 166.549 31.04 166.549 31.4495V33.4956C166.549 34.3134 166.549 34.5175 166.947 34.5175H167.146C167.344 34.7217 167.344 34.9282 167.146 34.9282H164.962V34.5175H165.16C165.755 34.5175 165.755 34.3134 165.755 33.4956V27.9708H165.754V27.9708ZM172.107 31.4495H171.909C171.909 31.0388 172.502 30.2211 173.297 30.2211C173.892 30.2211 174.093 30.6317 174.093 31.0388V31.2453C173.892 31.4495 173.694 31.4495 172.901 31.4495H172.107V31.4495ZM174.291 31.8601C174.687 31.8601 174.886 31.8601 174.886 31.6536C175.084 31.6536 175.084 31.6536 175.084 31.4495C175.084 30.6317 174.291 30.017 173.297 30.017C171.909 30.017 171.113 31.2453 171.113 32.6779C171.113 33.2891 171.113 33.6998 171.512 34.3145C171.91 34.7228 172.503 35.1323 173.297 35.1323C173.892 35.1323 174.687 34.7217 175.084 33.9039L174.886 33.6998C174.488 34.3134 174.093 34.3134 173.694 34.3134C172.502 34.3134 171.909 33.2891 171.909 32.0631C171.909 31.8589 171.909 31.859 172.107 31.859H174.291V31.8601V31.8601ZM177.865 27.1531V26.9489H180.445C180.643 26.9489 180.643 27.1531 180.445 27.1531H180.246C180.048 27.1531 179.848 27.3595 179.848 27.3595C179.848 27.5637 180.048 28.1773 180.443 28.9962C181.039 30.4288 181.834 32.0643 182.429 33.4968C182.825 32.8832 183.024 32.2684 183.421 31.6548C183.421 31.2465 183.621 31.0412 183.621 31.0412L183.421 30.8371L182.231 27.769C182.031 27.5649 181.832 27.1554 181.437 27.1554H181.237C181.039 27.1554 181.039 26.9513 181.237 26.9513H183.621C183.819 26.9513 183.819 27.1554 183.621 27.1554H183.421C183.024 27.1554 183.024 27.3619 183.223 27.769C183.421 28.3826 183.818 29.2015 184.016 30.0193C184.214 29.4057 184.415 28.9974 184.81 28.3826C185.208 27.3607 185.008 27.1542 184.81 27.1542H184.413C184.213 26.9501 184.413 26.9501 184.413 26.9501H186.597C186.597 26.9501 186.795 27.1542 186.597 27.1542H186.199C185.802 27.1542 185.603 27.7678 185.405 28.1785C185.007 28.7921 184.612 29.8152 184.413 30.2223V30.8371C184.81 31.6548 185.207 32.679 185.603 33.498C186.002 32.6802 186.199 31.8613 186.597 31.0412C186.795 30.4299 187.589 28.7933 187.589 28.5868C187.787 28.1785 187.987 27.5649 187.987 27.3607C187.987 27.3607 187.787 27.1542 187.589 27.1542H187.19V26.9501H189.374C189.574 26.9501 189.574 27.1542 189.374 27.1542H189.176C188.58 27.1542 188.58 27.5649 187.786 29.2004L186.992 31.2465C186.397 32.4726 186 33.7009 185.602 35.1323H185.206C184.812 33.9443 184.348 32.7826 183.816 31.6536C183.417 32.4714 182.624 34.1104 182.426 35.1323H182.027C181.829 34.5187 181.434 33.4956 181.234 33.0862C180.44 31.4495 179.843 29.814 179.05 27.972C178.852 27.5637 178.654 27.1542 178.256 27.1542H177.865V27.1531V27.1531ZM192.356 32.6779C192.356 33.4956 192.155 34.7217 191.164 34.7217C189.972 34.7217 189.575 33.4956 189.575 32.4714C189.575 31.0388 190.171 30.2211 190.966 30.2211C191.957 30.2211 192.356 31.6536 192.356 32.6779V32.6779ZM190.966 30.017C189.774 30.017 188.582 31.0388 188.582 32.4714C188.582 34.1092 189.575 35.1323 190.966 35.1323C192.356 35.1323 193.347 33.9039 193.347 32.4714C193.347 31.0388 192.356 30.017 190.966 30.017ZM194.936 31.4495C194.936 30.8359 194.936 30.8359 194.737 30.6317H194.539V30.4276C194.737 30.2211 195.531 30.017 195.729 29.814V30.6317H195.927C196.326 30.2211 196.721 30.0181 197.119 30.0181C197.518 30.0181 197.715 30.2223 197.715 30.4288C197.715 30.8371 197.316 31.04 197.119 31.04C197.119 31.04 196.921 31.04 196.921 30.8359C196.721 30.8359 196.523 30.6317 196.326 30.6317C196.129 30.6317 196.128 30.8359 195.927 31.04C195.927 31.04 195.729 31.4507 195.729 31.8601V33.4968C195.729 34.3146 195.927 34.5187 196.325 34.5187H196.721V34.9293H194.339C194.141 34.9293 194.141 34.7228 194.339 34.5187H194.539C194.936 34.5187 194.936 34.3146 194.936 33.4968V31.4495V31.4495ZM199.5 33.4956C199.5 34.3134 199.5 34.5175 199.898 34.5175H200.295V34.9282H197.913V34.5175H198.311C198.707 34.5175 198.707 34.3134 198.707 33.4956V27.9708C198.707 27.3595 198.707 27.3596 198.311 27.1531V26.9489C198.111 26.9489 198.111 26.7448 198.311 26.7448C198.509 26.7448 199.105 26.5406 199.501 26.3341V33.4956H199.5V33.4956ZM204.662 33.6998C204.662 33.9039 204.662 34.1104 204.464 34.1104C204.266 34.3146 203.868 34.5187 203.67 34.5187C202.478 34.5187 201.885 33.4968 201.885 32.2684C201.885 31.2465 202.478 30.2223 203.473 30.2223C203.869 30.2223 204.267 30.6329 204.465 30.8359C204.465 31.04 204.663 31.04 204.663 31.2465V33.6998H204.662V33.6998ZM205.455 27.7678V26.3353C204.862 26.5418 204.464 26.7459 204.068 26.7459V26.9501L204.266 27.1542C204.662 27.3607 204.662 27.3607 204.662 27.972V29.814C204.662 30.0181 204.662 30.0181 204.464 30.0181H203.67C202.082 30.0181 200.891 31.04 200.891 32.679C200.891 33.9051 201.885 35.1335 203.075 35.1335C203.67 35.1335 204.069 34.9293 204.465 34.5199H204.663V35.1347C205.061 35.1347 205.855 34.9305 206.252 34.724C206.45 34.724 206.45 34.5199 206.252 34.3157C206.052 34.5199 205.854 34.5199 205.854 34.5199C205.455 34.5199 205.455 34.1116 205.455 33.0873V27.7678V27.7678ZM209.427 27.3595C209.427 27.3595 209.427 27.1531 209.625 27.1531C210.22 27.1531 210.418 27.5637 210.418 27.9708C210.418 28.3814 210.22 28.7909 209.823 28.7909C209.427 28.7909 209.427 28.7909 209.427 28.5844V27.3595ZM208.831 29.6098C208.831 30.2211 208.831 30.2211 208.633 30.2211L208.435 30.4276H209.822C210.022 30.4276 210.022 30.4276 209.822 30.4276L209.624 30.2211C209.425 30.2211 209.425 30.2211 209.425 29.6098V29.1992C209.425 28.9951 209.425 28.9951 209.624 28.9951H209.822C210.022 29.4033 210.22 29.6087 210.417 29.8128C210.617 30.4264 211.013 30.6306 211.411 30.6306C211.411 30.6306 211.609 30.6306 211.609 30.4264C211.609 30.4264 211.411 30.4264 211.411 30.2199C211.013 30.0158 210.816 29.6087 210.417 28.9939V28.7897C210.617 28.5832 211.013 28.3791 211.013 27.9696C211.013 27.1519 210.219 26.9477 209.82 26.9477H208.433V27.1519H208.631C208.829 27.1519 208.829 27.3584 208.829 27.9696V29.6098H208.831ZM209.823 31.8601C211.61 31.8601 213 30.4276 213 28.7921C213 26.9501 211.61 25.7217 209.823 25.7217C208.038 25.7217 206.846 26.9501 206.846 28.7921C206.846 30.4276 208.036 31.8601 209.823 31.8601ZM207.243 28.7921C207.243 27.1542 208.435 25.9282 209.823 25.9282C211.412 25.9282 212.405 27.1542 212.405 28.7921C212.405 30.2223 211.413 31.4507 209.823 31.4507C208.435 31.4495 207.243 30.2211 207.243 28.7921Z" fill="white" fill-opacity="0.4"/>
</g>
<defs>
<clipPath id="clip0_86_350">
<rect width="213" height="38" fill="white"/>
</clipPath>
</defs>
</svg>
