<svg width="88" height="30" viewBox="0 0 88 30" fill="none" xmlns="http://www.w3.org/2000/svg">
<g clip-path="url(#clip0_86_333)">
<path d="M24.8447 15.7929C25.0854 15.6692 25.3501 15.5207 25.5908 15.397C25.6871 15.3475 26.024 15.2238 26.0722 15.1249C26.0963 15.0754 26.0722 14.9269 26.0722 14.8527V14.2589V10.028V5.896V5.35167C26.0722 5.32693 26.0963 5.15373 26.0722 5.12899C26.0481 5.10425 25.8556 5.12899 25.8315 5.12899H25.302C25.1095 5.12899 25.1335 5.15373 25.0132 5.30219C24.5559 5.92074 24.0986 6.5393 23.6413 7.1826C23.4247 7.47951 23.2081 7.75167 23.0156 8.04858C22.8712 8.24652 22.8712 8.27126 22.6064 8.27126L22.6786 6.63827C22.7027 6.24239 22.7027 5.84652 22.7268 5.45064C22.7268 5.30219 22.7508 5.15373 22.7508 5.00528C22.7508 4.9558 22.7268 4.80734 22.7508 4.7826C22.799 4.70837 23.2322 4.75786 23.3525 4.75786H32.3539C32.402 4.75786 32.6186 4.73312 32.6668 4.75786C32.7149 4.7826 32.6908 4.93105 32.6908 5.00528C32.7149 5.32693 32.7149 5.67332 32.739 5.99497C32.763 6.7125 32.7871 7.40528 32.8352 8.12281V8.27126C32.7149 8.27126 32.6186 8.296 32.5224 8.22178C32.4261 8.14755 32.3539 7.99909 32.2817 7.90013C31.9929 7.50425 31.704 7.08363 31.3912 6.68775L30.5247 5.50013C30.4766 5.4259 30.4044 5.2527 30.3081 5.20322C30.2359 5.15373 30.0915 5.17848 29.9952 5.17848H29.6101C29.562 5.17848 29.3695 5.15373 29.3213 5.17848C29.2973 5.20322 29.3213 5.20322 29.2973 5.2527C29.2491 5.45064 29.2973 5.69806 29.2973 5.896V14.5063C29.2973 14.6795 29.2491 14.9269 29.2973 15.1001C29.3454 15.2733 29.7305 15.397 29.899 15.4713C30.0674 15.5702 30.3563 15.6445 30.5007 15.7929C30.5488 15.8424 30.5969 16.0898 30.5488 16.164C30.5247 16.1888 30.4044 16.164 30.3803 16.164H25.0854C25.0373 16.164 24.8688 16.1888 24.8447 16.164C24.8207 16.0651 24.8447 15.8671 24.8447 15.7929V15.7929ZM33.7739 15.3475V11.7352V5.82178V4.85683C33.7739 4.70837 33.822 4.48569 33.7739 4.33724C33.7257 4.16404 33.4369 4.1393 33.2685 4.06507C33.1722 4.04033 32.8593 3.96611 32.8112 3.86714V3.6692H32.8834C32.9796 3.61971 33.1722 3.61971 33.2925 3.59497C33.5091 3.54549 33.7257 3.52074 33.9183 3.47126C34.3996 3.37229 34.9051 3.27332 35.3864 3.1991C35.6752 3.14961 35.964 3.07538 36.2529 3.0259C36.3251 3.0259 36.6139 2.97641 36.6379 3.0259C36.662 3.05064 36.6379 3.14961 36.6379 3.17435V8.296C37.5525 7.3558 39.141 6.83621 40.4166 7.15786C41.5237 7.43002 41.8847 8.49394 41.8847 9.5826C41.9088 10.9682 41.8847 12.329 41.8847 13.7146V14.828C41.8847 14.9517 41.8366 15.2486 41.8847 15.3723C41.9088 15.4218 42.0051 15.4465 42.0532 15.496C42.2217 15.595 42.4142 15.6939 42.5827 15.7929C42.6068 15.8177 42.679 15.8424 42.679 15.8671C42.703 15.8919 42.703 16.1146 42.679 16.1393C42.6549 16.1888 42.6549 16.164 42.5827 16.164C42.318 16.2135 42.0291 16.164 41.7885 16.164H38.3227C38.2986 16.164 38.1783 16.1888 38.1542 16.164C38.1301 16.1393 38.1301 15.8671 38.1542 15.8424C38.2264 15.7434 38.5152 15.6445 38.6115 15.5702C38.6837 15.5207 38.9003 15.4465 38.9485 15.3723C38.9966 15.2981 38.9485 15.0259 38.9485 14.9517V13.9372C38.9485 12.5022 38.9725 11.0424 38.9485 9.60734C38.9485 9.18672 38.8763 8.69188 38.4671 8.4692C38.2505 8.34549 37.9617 8.32074 37.721 8.32074C37.5285 8.32074 37.3359 8.37023 37.1674 8.41971C37.023 8.4692 36.7583 8.56817 36.662 8.69188C36.5898 8.79085 36.6379 8.9393 36.6379 9.06301V14.9022C36.6379 15.0259 36.5898 15.2733 36.6379 15.3723C36.662 15.4218 36.7583 15.4713 36.8305 15.496C36.999 15.595 37.2156 15.6939 37.384 15.7929C37.4081 15.8177 37.4563 15.8177 37.4563 15.8424C37.4803 15.8671 37.4803 16.0898 37.4563 16.1146C37.4322 16.1393 37.4081 16.1393 37.36 16.1393C37.0952 16.164 36.8064 16.1393 36.5417 16.1393H33.0759C33.0518 16.1393 32.9315 16.164 32.9074 16.1393C32.8834 16.1146 32.9074 15.8671 32.9315 15.8177C33.0037 15.7187 33.2685 15.6197 33.3647 15.5702C33.5332 15.496 33.6535 15.4218 33.7739 15.3475V15.3475ZM45.2061 11.9331C45.2542 13.0218 45.5912 14.2341 46.5539 14.828C47.0593 15.1249 47.6851 15.2238 48.2627 15.1744C48.9607 15.1001 49.5383 14.7537 50.14 14.4321C50.14 14.5311 50.1641 14.7042 50.14 14.8032C50.0918 14.9022 49.9715 15.0259 49.8993 15.1001C49.803 15.1991 49.6827 15.3228 49.5624 15.4218C49.1532 15.7682 48.6959 16.0156 48.2146 16.1888C47.3 16.5104 46.241 16.4857 45.3024 16.2383C44.5563 16.0403 43.8824 15.6692 43.3769 15.0754C42.8715 14.4816 42.5827 13.7146 42.4624 12.9228C42.1976 11.2156 42.5105 9.26095 43.8824 8.12281C45.0857 7.13312 47.0112 6.93518 48.4312 7.52899C50.1641 8.24652 50.4529 10.2754 50.4529 11.9579H45.8559C45.6393 11.9331 45.4227 11.9331 45.2061 11.9331V11.9331ZM45.158 11.5125C45.6393 11.4878 46.1207 11.463 46.6261 11.4135C46.9149 11.3888 47.2278 11.3888 47.5166 11.364C47.5647 11.364 47.6851 11.364 47.7332 11.3393C47.8054 11.2898 47.7573 10.795 47.7573 10.696C47.7332 9.80528 47.7091 8.71662 47.2037 7.94961C46.8427 7.40528 46.2891 7.50425 45.9522 7.9991C45.2542 8.96404 45.158 10.3991 45.158 11.5125V11.5125ZM8.7193 20.5434C8.7193 19.1579 8.98405 17.7228 9.73015 16.5599C10.4522 15.4218 11.6074 14.6795 12.859 14.3084C14.3752 13.863 16.06 13.9125 17.6244 14.2094C17.9613 14.2836 18.2983 14.3579 18.6112 14.4568C18.6593 14.4816 18.8759 14.5311 18.9 14.5805V14.6548C18.9722 14.9517 18.924 15.3228 18.924 15.6197C18.9481 16.3867 18.9481 17.1785 18.9722 17.9455C18.8759 17.9455 18.7074 17.9702 18.6352 17.9455C18.5871 17.9207 18.539 17.797 18.5149 17.7475C18.3224 17.4506 18.1298 17.1537 17.9613 16.8321C17.5522 16.164 17.119 15.496 16.7098 14.828C16.4932 14.4568 15.8915 14.4568 15.5064 14.4568C15.0732 14.4568 14.64 14.5311 14.279 14.7537C13.4607 15.2733 13.0756 16.2878 12.859 17.2032C12.522 18.663 12.5461 20.197 12.6183 21.6816C12.6905 22.8197 12.7868 24.0321 13.22 25.0713C13.4847 25.7146 13.942 26.2836 14.64 26.4321C14.8566 26.4816 15.0732 26.4816 15.3139 26.4568C15.4583 26.4321 15.9637 26.4073 16.0359 26.2589C16.06 26.2094 16.0359 26.0857 16.0359 26.0362V25.6156V22.9929V21.9785C16.0359 21.8053 16.084 21.7311 15.9396 21.6321C15.7712 21.5331 15.5786 21.4341 15.4101 21.3104C15.2898 21.2362 15.0491 21.162 14.9769 21.063C14.9288 21.0135 14.9047 20.7414 14.9529 20.6919C14.9769 20.6424 14.9769 20.6671 15.0491 20.6671C15.2657 20.6177 15.5546 20.6671 15.7712 20.6671H19.5017C19.7424 20.6671 20.0071 20.6424 20.2478 20.6671H20.344C20.3681 20.6919 20.3681 21.0383 20.344 21.0878C20.2959 21.162 20.0552 21.261 19.959 21.3104C19.7905 21.4094 19.5979 21.5084 19.4295 21.6321C19.2369 21.7311 19.261 21.7311 19.261 21.9537V25.9867C19.261 26.0362 19.2851 26.1599 19.261 26.2094C19.2129 26.3331 18.7074 26.4073 18.563 26.4568C18.1539 26.5805 17.7207 26.6795 17.2874 26.7537C16.4451 26.9022 15.6027 26.9517 14.7603 26.9269C13.4125 26.8774 11.9925 26.5805 10.8854 25.7393C9.92269 25.0218 9.29693 23.9331 9.00811 22.7455C8.7915 22.0527 8.7193 21.2857 8.7193 20.5434ZM19.8146 18.2919C19.8146 18.2424 19.7905 18.0445 19.8146 18.0197C19.8386 17.995 19.8627 18.0197 19.8868 17.995C20.0312 17.9207 20.2237 17.9207 20.3922 17.896C20.9457 17.797 21.4993 17.6981 22.0769 17.5991C22.5101 17.5249 22.9434 17.4259 23.3525 17.3764C23.4729 17.3517 23.6173 17.3517 23.7376 17.4012C23.8579 17.4259 23.8098 17.4012 23.8339 17.5001C23.882 17.797 23.8339 18.1434 23.8339 18.4403V23.6115C23.8339 24.23 23.6654 25.3682 24.243 25.7393C24.5318 25.9372 24.941 25.9372 25.2779 25.863C25.5427 25.8135 26.0481 25.6156 26.1444 25.3187C26.1685 25.2445 26.1444 25.1455 26.1444 25.0713V24.5517V21.1125V19.529V19.0094C26.1444 18.9599 26.1685 18.8115 26.1444 18.762C26.0722 18.6878 25.8315 18.6135 25.7593 18.5888C25.6149 18.5393 25.4946 18.4651 25.3501 18.4156C25.302 18.3908 25.1335 18.3661 25.1095 18.3166C25.0854 18.2919 25.0854 18.0692 25.1095 18.0445C25.1335 18.0197 25.1335 18.0445 25.1576 18.0197C25.2779 17.9455 25.4946 17.9702 25.6149 17.9455C26.6017 17.7723 27.6125 17.5496 28.6234 17.4012C28.7437 17.3764 28.864 17.3764 28.9844 17.4012C29.1047 17.4259 29.0566 17.3764 29.0807 17.5001C29.1288 17.7475 29.0807 18.0939 29.0807 18.3661V25.4919C29.0807 25.5661 29.0566 25.6898 29.0807 25.7888C29.1047 25.863 29.0807 25.8383 29.201 25.8878C29.4417 25.9867 29.7064 26.1104 29.9471 26.2094C30.0193 26.2341 30.0434 26.2341 30.0674 26.2836C30.0915 26.3331 30.0915 26.5063 30.0674 26.5063C30.0193 26.5558 29.7786 26.5311 29.7305 26.5558C29.201 26.63 28.6715 26.6795 28.1179 26.7537C27.6366 26.8032 27.1552 26.8774 26.6979 26.9269C26.6017 26.9517 26.5054 26.9517 26.4091 26.9269C26.361 26.9269 26.2166 26.9269 26.1925 26.9022C26.1685 26.8527 26.1925 26.6548 26.1925 26.6053V26.1847C26.1925 26.1104 26.2407 25.9125 26.1925 25.8383C26.1444 25.764 26.0481 25.863 25.9759 25.9125C25.7834 26.0857 25.5668 26.2589 25.3501 26.3826C24.5559 26.8774 23.5691 27.1001 22.6546 26.9022C21.9807 26.7537 21.403 26.3579 21.1142 25.6898C20.8976 25.2197 20.8495 24.7001 20.8495 24.2053V21.261V19.5785V19.0094C20.8495 18.9599 20.8735 18.8115 20.8495 18.762C20.8013 18.6878 20.5125 18.6135 20.4403 18.564C20.1996 18.4651 20.0071 18.3908 19.8146 18.2919V18.2919ZM42.5105 17.3517C42.5586 17.3517 42.7752 17.3517 42.7993 17.4012C42.8234 17.4259 42.7993 17.5991 42.7993 17.6238V19.8012C42.7993 19.8754 42.7752 19.9991 42.7993 20.0733V20.1228C42.8956 20.2218 42.9196 19.9001 42.9437 19.8754C43.1603 18.9599 43.5695 17.896 44.4841 17.5249C44.6525 17.4506 44.821 17.4259 44.9895 17.4012C45.1339 17.4012 45.543 17.3517 45.6152 17.4754C45.6393 17.5249 45.6152 17.6486 45.6152 17.6981V20.2218C45.0376 20.0981 44.3878 20.1228 43.8342 20.2465C43.5695 20.296 43.3288 20.3702 43.0881 20.4939C42.9678 20.5434 42.9437 20.5187 42.9196 20.6177C42.8956 20.7166 42.9196 20.8898 42.9196 20.9888V25.764C42.9196 25.8135 42.8956 25.8878 42.9196 25.9372C42.9678 26.0115 43.1363 26.061 43.2085 26.0857C43.3288 26.1599 43.4732 26.2341 43.5935 26.3084C43.6417 26.3331 43.7139 26.3579 43.7379 26.4073C43.762 26.4321 43.762 26.729 43.7379 26.7537C43.7139 26.7785 43.5695 26.7537 43.5213 26.7537H39.5261C39.4057 26.7537 39.1891 26.8032 39.0929 26.7537H39.0207C38.9966 26.729 39.0207 26.4568 39.0207 26.4321C39.0688 26.2836 39.3817 26.1847 39.5261 26.1104C39.6224 26.061 39.8149 25.9867 39.863 25.8878C39.8871 25.8383 39.863 25.6898 39.863 25.6403V25.1207V18.762C39.863 18.7372 39.8871 18.6135 39.863 18.5888C39.839 18.564 39.7186 18.5393 39.6705 18.5393C39.5261 18.4898 39.3817 18.4403 39.2373 18.4156C39.0929 18.3661 38.7318 18.3414 38.8522 18.0939C38.8763 18.0197 38.9725 18.0445 39.0688 18.0197C40.1278 17.8218 41.1627 17.6238 42.2217 17.4259C42.318 17.3764 42.4142 17.3764 42.5105 17.3517V17.3517ZM51.5841 17.5744V15.595V15.0259C51.5841 14.9517 51.6081 14.8032 51.5841 14.729C51.56 14.6795 51.4637 14.6548 51.3915 14.63C51.199 14.5558 51.0064 14.4816 50.7898 14.4073C50.6454 14.3579 50.5732 14.3826 50.5732 14.2094C50.5732 14.0609 50.5491 14.1104 50.6695 14.0857C50.9342 13.9867 51.2471 13.9867 51.5118 13.9372C52.3061 13.7888 53.0763 13.6403 53.8705 13.4919C54.039 13.4671 54.2074 13.4177 54.3759 13.4424C54.5685 13.4671 54.5925 13.4177 54.5925 13.5908C54.6166 13.9867 54.5925 14.4073 54.5925 14.8032V25.6403C54.5925 25.7393 54.5685 25.7393 54.6407 25.7888C54.7851 25.8878 55.0257 25.9372 55.1702 25.9867C55.2664 26.0115 55.5312 26.061 55.5793 26.1352C55.6034 26.1599 55.6034 26.4321 55.5793 26.4568C55.5552 26.4816 55.4108 26.4816 55.3868 26.4816C55.0498 26.5311 54.7369 26.5805 54.4 26.6053C53.6539 26.7042 52.9078 26.8032 52.1376 26.9022C52.0173 26.9269 51.7285 26.9764 51.6803 26.8774C51.6322 26.7785 51.6803 26.4568 51.6803 26.3579C51.6803 26.2836 51.7285 25.962 51.6803 25.9125C51.6322 25.863 51.1027 26.3579 51.0305 26.4073C50.7417 26.6053 50.4288 26.7537 50.0918 26.8527C49.5624 27.0012 48.9607 27.0012 48.4312 26.8774C46.1207 26.3331 45.6393 23.5125 45.8318 21.4589C45.9281 20.3702 46.2651 19.2816 46.9871 18.4898C47.661 17.7723 48.5756 17.4012 49.5142 17.3269C50.2363 17.2527 50.9342 17.3022 51.5841 17.5744V17.5744ZM51.5841 25.4671V19.3805V18.2424C51.5841 18.0939 51.56 18.0692 51.3915 17.9702C51.0546 17.7723 50.6213 17.6981 50.2603 17.8465C49.7068 18.0692 49.442 18.7372 49.2976 19.2816C49.0088 20.2713 48.9847 21.3352 49.0088 22.3744C49.0329 23.2651 49.0569 24.3537 49.5383 25.1455C49.9715 25.8383 50.9583 26.0115 51.5841 25.4671ZM59.5505 17.3517C59.6708 17.3764 59.8152 17.3269 59.8634 17.4506C59.8874 17.5249 59.8634 17.6981 59.8634 17.7723V25.5166C59.8634 25.6156 59.8393 25.764 59.8634 25.863C59.8874 25.962 59.9837 25.9867 60.08 26.0362C60.2244 26.1104 60.3447 26.1847 60.4891 26.2589C60.5373 26.2836 60.6817 26.3331 60.7057 26.4073C60.7057 26.4321 60.7298 26.729 60.7057 26.7537H60.6335C60.4891 26.7785 60.2966 26.7537 60.1281 26.7537H56.4698C56.3735 26.7537 56.1088 26.8032 56.0366 26.7537C55.9885 26.729 55.9644 26.4321 56.0125 26.3826C56.0607 26.3084 56.2291 26.2589 56.3013 26.2341C56.4457 26.1599 56.5902 26.061 56.7346 25.9867C56.8549 25.9125 56.8308 25.9372 56.8308 25.8383C56.879 25.4671 56.8308 25.0465 56.8308 24.6754V22.7207V19.1579C56.8308 19.0589 56.8549 18.8857 56.8308 18.7867C56.8068 18.6878 56.6864 18.6878 56.5902 18.6383C56.4217 18.564 56.2773 18.5146 56.1088 18.4403C56.0607 18.4156 55.8681 18.3908 55.82 18.3166C55.7959 18.2919 55.7959 18.0445 55.82 18.0197C55.8441 17.995 55.8922 18.0197 55.9163 17.995C56.1088 17.9207 56.3254 17.9207 56.542 17.8713C56.8549 17.8218 57.1437 17.7475 57.4566 17.6981C58.0583 17.5991 58.6359 17.4754 59.2376 17.3764C59.358 17.4012 59.4542 17.3764 59.5505 17.3517V17.3517ZM59.8874 15.0506C59.8393 16.5352 57.8898 17.1785 56.9993 16.0156C56.5902 15.4713 56.5661 14.729 56.9271 14.1599C57.2881 13.5908 57.9861 13.3434 58.6359 13.4919C59.358 13.6403 59.8874 14.2836 59.8874 15.0506V15.0506ZM70.4291 25.9125V19.9496V18.8115C70.4291 18.7867 70.4532 18.663 70.4291 18.6383C70.4051 18.5888 70.2607 18.564 70.2125 18.564L69.7793 18.4156C69.7071 18.3908 69.5146 18.3661 69.4664 18.2919C69.4183 18.2424 69.4424 18.1187 69.4424 18.0445C69.4424 17.896 69.4905 17.9207 69.6349 17.896L71.2234 17.5991L72.8119 17.3022C72.9081 17.2774 72.9803 17.2527 73.0766 17.2527C73.1247 17.2527 73.3654 17.2527 73.4135 17.2774C73.4376 17.3022 73.4135 17.4506 73.4135 17.5001V17.9702C73.4135 18.0445 73.3654 18.2671 73.4135 18.3414C73.4617 18.4403 73.558 18.3414 73.6302 18.2671C73.8468 18.0939 74.0634 17.9455 74.3041 17.8218C75.1705 17.3269 76.2054 17.1042 77.1922 17.2527C77.8661 17.3517 78.4196 17.7228 78.6603 18.3908C78.8288 18.8609 78.8529 19.3558 78.8529 19.8506V25.4919C78.8529 25.5908 78.8288 25.764 78.8529 25.863C78.8769 25.962 78.9491 25.9867 79.0695 26.0362C79.1898 26.1104 79.3342 26.1847 79.4546 26.2589C79.5027 26.2836 79.6712 26.3331 79.6952 26.4073C79.7193 26.4568 79.7193 26.7042 79.6952 26.729C79.6712 26.7785 79.7193 26.729 79.6471 26.7537C79.5508 26.8032 79.3342 26.7537 79.2139 26.7537H75.7722C75.6278 26.7537 75.0742 26.828 75.002 26.729C74.978 26.7042 74.978 26.4321 75.002 26.3826C75.0261 26.3331 75.1705 26.2836 75.2186 26.2589C75.363 26.1847 75.4834 26.1104 75.6278 26.0362C75.6759 26.0115 75.8203 25.962 75.8444 25.9125C75.8685 25.863 75.8444 25.764 75.8444 25.7146V25.1702V23.4383V20.0981C75.8444 19.7022 75.8685 19.2568 75.6278 18.9104C75.4352 18.6135 75.0983 18.5393 74.7613 18.5146C74.4966 18.5146 74.2559 18.5393 74.0152 18.6135C73.8949 18.663 73.5339 18.762 73.4617 18.9104C73.4376 18.9599 73.4617 19.0589 73.4617 19.1084V25.5166C73.4617 25.5908 73.4376 25.764 73.4617 25.8383C73.4857 25.9372 73.6302 25.962 73.7024 26.0115C73.8227 26.0857 73.9671 26.1599 74.0874 26.2341C74.1356 26.2589 74.2319 26.3084 74.2559 26.3331C74.28 26.3579 74.28 26.6548 74.2559 26.6795C74.2559 26.7042 74.2319 26.6795 74.2078 26.6795C74.1115 26.729 73.8708 26.6795 73.7746 26.6795H69.7312C69.6108 26.6795 69.5868 26.7042 69.5627 26.63C69.5386 26.5805 69.5386 26.3579 69.5627 26.3084C69.5868 26.2589 69.7312 26.2094 69.7793 26.1847C70.02 26.1599 70.2125 26.0362 70.4291 25.9125V25.9125ZM65.3268 21.3599C65.3268 20.7166 65.3508 20.0486 65.3027 19.3805C65.2305 18.663 65.038 17.8713 64.2437 17.7228C64.003 17.6733 63.5698 17.5991 63.4013 17.797C63.2329 17.9702 63.1125 18.2177 62.9681 18.4156L61.7407 20.1228C61.6685 20.2218 61.5963 20.4197 61.5 20.4692C61.4759 20.4939 61.2352 20.4939 61.2352 20.4692C61.2112 20.4445 61.2352 20.2713 61.2352 20.2218V18.2177C61.2352 18.1434 61.2112 18.0197 61.2352 17.9455C61.2834 17.8218 61.8129 17.7475 61.9332 17.6981C62.6071 17.5249 63.3051 17.4012 64.003 17.3517C64.9898 17.2774 66.0969 17.3022 67.0115 17.7475C67.7335 18.0939 68.1908 18.7125 68.3112 19.5042C68.3834 19.9001 68.3593 20.3455 68.3593 20.7414V25.6898C68.3593 25.764 68.3112 25.962 68.3593 26.0115C68.3834 26.0362 68.5037 26.0609 68.5278 26.0609C68.7203 26.1104 68.8888 26.1599 69.0813 26.2094C69.2017 26.2341 69.2258 26.2341 69.2258 26.3579C69.2258 26.4816 69.2498 26.4816 69.1054 26.5311C68.9369 26.6053 68.7685 26.6795 68.6 26.729C67.7095 27.0012 66.3135 27.0754 65.6637 26.2341C65.6156 26.1599 65.4712 25.8383 65.399 25.8135C65.3027 25.7888 65.0139 26.1847 64.9176 26.2589C64.5325 26.6053 64.0271 26.8032 63.5217 26.8774C62.583 27.0012 61.5722 26.8032 60.9946 25.962C60.5132 25.2445 60.4169 24.1311 60.778 23.3393C61.4278 21.83 63.3532 21.6816 64.7491 21.4341C64.9176 21.4341 65.1102 21.3847 65.3268 21.3599V21.3599ZM65.3268 25.4671V21.8053C64.6047 21.8548 63.8586 21.9042 63.5939 22.7207C63.4013 23.2651 63.4013 23.9084 63.4735 24.4774C63.5217 24.8733 63.618 25.3682 63.979 25.6156C64.3641 25.8878 65.0139 25.8383 65.3268 25.4671V25.4671ZM34.8569 21.3599C34.8569 20.7166 34.881 20.0486 34.8329 19.3805C34.7607 18.663 34.5681 17.8713 33.7739 17.7228C33.5332 17.6733 33.1 17.5991 32.9315 17.797C32.763 17.9702 32.6427 18.2177 32.4983 18.4156L31.2708 20.1228C31.1986 20.2218 31.1264 20.4197 31.0301 20.4692C31.0061 20.4939 30.7654 20.4939 30.7654 20.4692C30.7413 20.4445 30.7654 20.2713 30.7654 20.2218V18.2424C30.7654 18.1682 30.7413 18.0445 30.7654 17.9702C30.8135 17.8465 31.319 17.7723 31.4634 17.7228C32.1373 17.5496 32.8352 17.4259 33.5091 17.3764C34.4959 17.3022 35.603 17.3269 36.5176 17.7723C37.2396 18.1187 37.6969 18.7372 37.8173 19.529C37.8895 19.9249 37.8654 20.3702 37.8654 20.7661V25.7146C37.8654 25.7888 37.8173 25.9867 37.8654 26.0362C37.8895 26.0609 38.0098 26.0857 38.0339 26.0857C38.2264 26.1352 38.3949 26.1847 38.5874 26.2341C38.7078 26.2589 38.7318 26.2589 38.7318 26.3826C38.7318 26.5063 38.7559 26.5063 38.6115 26.5558C38.443 26.63 38.2746 26.7042 38.1061 26.7537C37.2156 27.0259 35.8196 27.1001 35.1698 26.2589C35.1217 26.1847 34.9773 25.863 34.9051 25.8383C34.8088 25.8135 34.52 26.2094 34.4478 26.2836C34.0627 26.63 33.5573 26.828 33.0518 26.9022C32.1132 27.0259 31.1024 26.828 30.5247 25.9867C30.0434 25.2692 29.9471 24.1558 30.3081 23.364C30.9579 21.8548 32.8834 21.7063 34.2552 21.4589C34.4478 21.4341 34.6403 21.3847 34.8569 21.3599V21.3599ZM34.8569 25.4671V21.8053C34.1349 21.8548 33.3888 21.9042 33.124 22.7207C32.9315 23.2651 32.9315 23.9084 33.0037 24.4774C33.0518 24.8733 33.1481 25.3682 33.5091 25.6156C33.8942 25.8878 34.544 25.8383 34.8569 25.4671V25.4671Z" fill="white" fill-opacity="0.4"/>
</g>
<defs>
<clipPath id="clip0_86_333">
<rect width="71" height="24" fill="white" transform="translate(8.74274 3)"/>
</clipPath>
</defs>
</svg>
